<svg width="65" height="73" viewBox="0 0 65 73" fill="none" xmlns="http://www.w3.org/2000/svg">
<path d="M42.8645 23.4377C44.5955 29.1379 43.3798 34.983 43.6294 40.7476C43.8387 45.5702 43.6616 50.409 43.6777 55.2396C43.6858 61.8174 41.4395 67.2519 35.1918 70.0779C29.2742 72.7508 23.5096 72.5657 17.8416 68.6206C13.9691 65.9235 12.1092 62.2361 11.9885 58.0575C11.6423 46.6652 11.8677 35.2487 11.8838 23.8403C11.8838 23.5746 12.1334 23.3008 12.2703 23.0352" stroke="#EC126C" stroke-width="2" stroke-miterlimit="10" stroke-linecap="round" stroke-linejoin="round"/>
<path d="M42.8657 18.2047C45.4743 12.883 41.4487 4.2602 36.0223 2.49701C30.3704 0.661351 24.6219 0.315153 19.1471 2.58557C12.8351 5.20218 10.4036 11.8122 12.674 18.6073" stroke="#EC126C" stroke-width="2" stroke-miterlimit="10" stroke-linecap="round" stroke-linejoin="round"/>
<path d="M42.4629 18.2047C39.0895 18.5026 39.2425 15.4593 38.9607 13.7605C37.6645 5.93479 30.346 3.37453 23.1322 5.70131C19.0986 6.99754 17.4723 10.1697 16.3049 13.7846C15.6849 15.7169 15.4595 17.5928 13.1327 18.728C10.8301 19.8552 11.3293 22.3027 13.5192 22.8744C15.7574 23.454 15.4273 25.0562 15.8379 26.2719C18.3337 33.6307 24.8632 37.5354 31.9401 34.9752C35.7242 33.6065 38.2844 30.1767 39.5645 26.2317C39.9349 25.0804 39.8383 23.8405 41.2472 23.446C44.2342 22.6248 43.3325 20.5556 42.8575 18.6073" stroke="#EC126C" stroke-width="2" stroke-miterlimit="10" stroke-linecap="round" stroke-linejoin="round"/>
<path d="M34.4138 50.0064C34.2689 53.6375 32.6828 55.0786 28.778 55.0303C26.5076 54.9981 24.2291 54.3299 21.9345 54.821C20.3646 55.1592 19.3179 53.6455 19.2374 52.8163C18.7705 48.3237 15.6144 48.1144 12.2812 47.9937" stroke="#EC126C" stroke-width="2" stroke-miterlimit="10" stroke-linecap="round" stroke-linejoin="round"/>
<path d="M1.40282 35.917C1.40282 38.4692 1.37062 41.0134 1.41087 43.5656C1.47528 47.3818 2.38506 48.3238 6.23349 48.3721C7.97254 48.3962 9.71963 48.1305 11.4667 47.9937" stroke="#EC126C" stroke-width="2" stroke-miterlimit="10" stroke-linecap="round" stroke-linejoin="round"/>
<path d="M34.4122 64.4985C30.6523 64.4985 26.9005 64.4985 23.1406 64.4985" stroke="#EC126C" stroke-width="2" stroke-miterlimit="10" stroke-linecap="round" stroke-linejoin="round"/>
<path d="M33.2055 35.1118C34.4454 37.4708 37.6578 37.3822 38.9057 39.9103C39.9926 42.1243 40.8944 44.3384 39.1795 46.319C37.7142 48.0017 36.4501 50.3123 33.1814 49.2979C30.0898 48.3398 28.2621 46.319 28.1172 43.5574C27.9401 40.1518 30.7902 38.445 33.6161 37.1246" stroke="#EC126C" stroke-width="2" stroke-miterlimit="10" stroke-linecap="round" stroke-linejoin="round"/>
<path d="M22.1344 34.7095C18.9622 36.6015 15.8142 38.5177 15.4922 42.7606" stroke="#EC126C" stroke-width="2" stroke-miterlimit="10" stroke-linecap="round" stroke-linejoin="round"/>
<path d="M23.9461 59.668C20.9913 59.668 18.0446 59.668 15.0898 59.668" stroke="#EC126C" stroke-width="2" stroke-miterlimit="10" stroke-linecap="round" stroke-linejoin="round"/>
<path d="M12.6758 43.5656C16.2988 43.5656 19.9218 43.5817 23.5448 43.5576C24.8893 43.5495 26.2822 43.8072 27.5704 43.1631" stroke="#EC126C" stroke-width="2" stroke-miterlimit="10" stroke-linecap="round" stroke-linejoin="round"/>
<path d="M4.62301 57.2524C2.86786 57.9207 1.66019 59.1284 1 60.8754" stroke="#EC126C" stroke-width="2" stroke-miterlimit="10" stroke-linecap="round" stroke-linejoin="round"/>
<path d="M56.1504 21.0225C53.26 21.3606 54.6207 24.0175 53.6062 25.4506C52.3905 25.7163 51.046 25.9981 49.7739 26.2718C49.1379 27.6002 49.1379 28.9367 49.7739 30.2651C51.046 30.5389 52.3825 30.8287 53.6062 31.0864C54.6126 32.5195 53.252 35.3374 56.1504 35.4662C59.1374 35.595 58.5416 32.7368 59.4191 30.9334C60.5624 30.7482 61.7862 30.555 63.1227 30.3376C63.5494 28.9367 63.5494 27.6002 63.1227 26.1993C61.7862 25.982 60.5624 25.7887 59.5238 25.6197C58.2034 24.1221 59.709 21.0869 56.5529 21.0225" stroke="#EC126C" stroke-width="2" stroke-miterlimit="10" stroke-linecap="round" stroke-linejoin="round"/>
</svg>
