<svg width="449" height="241" viewBox="0 0 449 241" fill="none" xmlns="http://www.w3.org/2000/svg">
<path d="M402.122 224.079C413.8 224.079 423.268 214.606 423.268 202.922V174.079H380.977V202.922C380.977 214.608 390.444 224.079 402.122 224.079Z" fill="#6BB2E3"/>
<path d="M423.274 240.646H425.617V195.877H423.274V240.646Z" fill="#425899"/>
<path d="M378.634 240.646H380.977V195.877H378.634V240.646Z" fill="#425899"/>
<path d="M396.563 240.646H398.906V195.877H396.563V240.646Z" fill="#425899"/>
<path d="M425.602 226.423V224.079H380.858V226.423H425.602Z" fill="#425899"/>
<path d="M395.077 119.596C399.028 121.7 395.906 126.869 397.524 131.768C399.143 136.668 405.643 136.548 403.187 145.317C401.675 150.717 396.318 147.332 396.44 154.353C396.563 161.373 399.219 161.201 397.158 164.812C393.563 171.103 381.31 167.584 381.212 160.558C381.115 153.532 386.993 151.141 382.027 147.873C377.062 144.605 375.075 143.119 378.343 138.446C382.389 132.662 388.662 132.837 386.906 128.323C385.154 123.81 389.852 116.814 395.077 119.596Z" fill="#A3CFFF"/>
<path d="M392.996 173.921L391.967 174.217C384.974 149.835 391.522 126.878 391.588 126.65L392.615 126.951C392.551 127.177 386.092 149.849 392.996 173.921Z" fill="#425899"/>
<path d="M447.499 114.48C450.414 119.716 443.154 123.261 441.418 129.946C439.681 136.63 447.463 138.552 438.34 146.628C432.72 151.602 431.34 148.748 429.731 159.303C428.314 168.594 420.877 160.212 415.939 165.88C409.567 173.192 398.245 158.466 403.235 150.494C408.225 142.524 414.622 144.181 411.408 136.9C408.194 129.617 411.271 123.843 418.338 120.963C427.084 117.398 430.678 124.713 431.982 118.36C433.284 112.009 443.643 107.555 447.499 114.48Z" fill="#A1D3FF"/>
<path d="M405.723 174.05C415.434 141.947 439.143 121.161 439.381 120.956L438.444 119.871C438.203 120.08 414.182 141.138 404.352 173.634L405.723 174.05Z" fill="#425899"/>
<path d="M45.6608 34.7531C46.0953 37.3878 47.5588 39.7773 49.568 41.5007C51.5773 43.2241 54.141 44.2971 56.7742 44.2971H81.4812C84.9626 44.2971 87.7001 42.4259 88.9046 39.6381C89.5216 38.2086 89.7372 36.5409 89.4434 34.7549C89.0089 32.1202 87.5454 29.7307 85.5431 28.0073C83.527 26.2839 80.9702 25.2109 78.337 25.2109H53.63C52.4116 25.2109 51.2835 25.4422 50.2824 25.8561C46.9487 27.2421 44.9951 30.7046 45.6608 34.7531Z" fill="#61B8FF"/>
<path d="M80.2298 53.8914C81.1753 53.8914 81.8479 52.968 81.5577 52.0672L78.2396 41.765C78.0537 41.1876 77.5183 40.7981 76.9117 40.7981C75.9662 40.7981 75.2936 41.7215 75.5838 42.6224L78.9019 52.9245C79.0878 53.5002 79.6232 53.8914 80.2298 53.8914Z" fill="#123E80"/>
<path d="M63.8704 53.8914C64.8159 53.8914 65.4885 52.968 65.1983 52.0672L61.8803 41.765C61.6943 41.1876 61.1589 40.7981 60.5523 40.7981C59.6068 40.7981 58.9342 41.7215 59.2245 42.6224L62.5425 52.9245C62.7284 53.5002 63.2655 53.8914 63.8704 53.8914Z" fill="#123E80"/>
<path d="M49.7468 30.7255C50.1814 33.3602 51.6448 35.7496 53.6541 37.48C55.6633 39.2034 58.227 40.2764 60.8602 40.2764H85.5672C86.7787 40.2764 87.8997 40.052 88.9009 39.6381C89.5179 38.2086 89.7334 36.5409 89.4397 34.7549C89.0052 32.1202 87.5417 29.7307 85.5394 28.0073C83.5232 26.2839 80.9665 25.2109 78.3333 25.2109H53.6263C52.4079 25.2109 51.2798 25.4422 50.2787 25.8561C49.6704 27.2839 49.4531 28.9447 49.7468 30.7255Z" fill="#9EDDFF"/>
<path d="M155.188 225.251H150.531V233.922H155.188V225.251Z" fill="#0D192B"/>
<path d="M120.266 225.251H115.609V233.922H120.266V225.251Z" fill="#0D192B"/>
<path d="M81.2423 225.251H76.5859V233.922H81.2423V225.251Z" fill="#0D192B"/>
<path d="M80.0509 239.511C82.0121 239.511 83.6019 236.997 83.6019 233.894C83.6019 230.792 82.0121 228.277 80.0509 228.277C78.0898 228.277 76.5 230.792 76.5 233.894C76.5 236.997 78.0898 239.511 80.0509 239.511Z" fill="#0D192B"/>
<path d="M83.4963 239.511C85.4574 239.511 87.0472 236.997 87.0472 233.894C87.0472 230.792 85.4574 228.277 83.4963 228.277C81.5351 228.277 79.9453 230.792 79.9453 233.894C79.9453 236.997 81.5351 239.511 83.4963 239.511Z" fill="#0D192B"/>
<path d="M84.8586 239.058C83.3813 240.211 79.2516 239.689 78.6745 239.092L78.6484 228.729C79.7573 227.759 83.6663 227.792 84.8569 228.675L84.8586 239.058Z" fill="#0D192B"/>
<path d="M83.8318 237.591C85.1757 237.591 86.2651 235.868 86.2651 233.741C86.2651 231.615 85.1757 229.891 83.8318 229.891C82.4879 229.891 81.3984 231.615 81.3984 233.741C81.3984 235.868 82.4879 237.591 83.8318 237.591Z" fill="#1E62CC"/>
<path d="M83.5842 236.199C84.403 236.199 85.0668 235.148 85.0668 233.853C85.0668 232.557 84.403 231.507 83.5842 231.507C82.7653 231.507 82.1016 232.557 82.1016 233.853C82.1016 235.148 82.7653 236.199 83.5842 236.199Z" fill="#0D192B"/>
<path d="M117.246 239.511C119.207 239.511 120.797 236.997 120.797 233.894C120.797 230.792 119.207 228.277 117.246 228.277C115.285 228.277 113.695 230.792 113.695 233.894C113.695 236.997 115.285 239.511 117.246 239.511Z" fill="#0D192B"/>
<path d="M113.801 239.511C115.762 239.511 117.352 236.997 117.352 233.894C117.352 230.792 115.762 228.277 113.801 228.277C111.84 228.277 110.25 230.792 110.25 233.894C110.25 236.997 111.84 239.511 113.801 239.511Z" fill="#0D192B"/>
<path d="M112.43 239.058C113.907 240.211 118.037 239.689 118.614 239.092L118.64 228.729C117.531 227.759 113.622 227.792 112.431 228.675L112.43 239.058Z" fill="#0D192B"/>
<path d="M113.472 237.591C114.816 237.591 115.906 235.868 115.906 233.741C115.906 231.615 114.816 229.891 113.472 229.891C112.129 229.891 111.039 231.615 111.039 233.741C111.039 235.868 112.129 237.591 113.472 237.591Z" fill="#1E62CC"/>
<path d="M113.717 236.199C114.536 236.199 115.2 235.148 115.2 233.853C115.2 232.557 114.536 231.507 113.717 231.507C112.898 231.507 112.234 232.557 112.234 233.853C112.234 235.148 112.898 236.199 113.717 236.199Z" fill="#0D192B"/>
<path d="M152.707 239.511C154.668 239.511 156.258 236.997 156.258 233.894C156.258 230.792 154.668 228.277 152.707 228.277C150.746 228.277 149.156 230.792 149.156 233.894C149.156 236.997 150.746 239.511 152.707 239.511Z" fill="#0D192B"/>
<path d="M149.262 239.511C151.223 239.511 152.813 236.997 152.813 233.894C152.813 230.792 151.223 228.277 149.262 228.277C147.301 228.277 145.711 230.792 145.711 233.894C145.711 236.997 147.301 239.511 149.262 239.511Z" fill="#0D192B"/>
<path d="M147.891 239.058C149.368 240.211 153.498 239.689 154.075 239.092L154.101 228.729C152.992 227.759 149.083 227.792 147.892 228.675L147.891 239.058Z" fill="#0D192B"/>
<path d="M148.933 237.591C150.277 237.591 151.367 235.868 151.367 233.741C151.367 231.615 150.277 229.891 148.933 229.891C147.589 229.891 146.5 231.615 146.5 233.741C146.5 235.868 147.589 237.591 148.933 237.591Z" fill="#1E62CC"/>
<path d="M149.186 236.199C150.005 236.199 150.668 235.148 150.668 233.853C150.668 232.557 150.005 231.507 149.186 231.507C148.367 231.507 147.703 232.557 147.703 233.853C147.703 235.148 148.367 236.199 149.186 236.199Z" fill="#0D192B"/>
<path d="M122.016 153.081H115.234V223.756H122.016V153.081Z" fill="#0D192B"/>
<path d="M158.416 226.105C158.425 226.046 158.47 225.99 158.47 225.931C158.47 222.191 139.982 219.158 117.176 219.158C94.3709 219.158 75.8828 222.191 75.8828 225.931C75.8828 225.99 75.928 226.046 75.9367 226.105H158.416Z" fill="#1A56B3"/>
<path d="M112.999 174.06H124.023V160.606H112.999V174.06Z" fill="#1A56B3"/>
<path d="M112.999 221.41H124.023V207.957H112.999V221.41Z" fill="#1A56B3"/>
<path d="M97.9146 47.5303V47.5442C97.7686 47.5303 97.6226 47.5303 97.4766 47.5303H97.9146Z" fill="#4A82DB"/>
<path d="M45.6016 54.2084C45.6016 54.8796 45.6815 55.5718 45.8501 56.2865L68.7026 144.664C68.8051 145.093 68.9285 145.516 69.0884 145.931C70.7796 152.667 76.9133 157.348 83.8709 157.159L107.761 156.54H154.843C157.691 156.54 160.257 155.425 162.115 153.623C163.98 151.823 165.139 149.336 165.139 146.589C165.139 145.611 164.986 144.679 164.694 143.805C163.375 139.773 159.237 137.017 154.566 137.017C154.566 137.017 133.393 137.593 127.223 131.659C121.044 125.718 107.125 56.6883 107.125 56.6883C105.945 51.7824 100.982 47.7721 95.9038 47.546C95.7508 47.5321 95.5979 47.5321 95.4519 47.5321C95.4519 47.5321 63.4883 47.2487 53.6889 47.2921C52.945 47.2921 52.3263 47.2991 51.8604 47.306C51.4311 47.313 51.1617 47.32 51.0661 47.3269C51.0435 47.3339 51.0366 47.3339 51.0366 47.3339C47.729 48.0643 45.6016 50.7616 45.6016 54.2084ZM75.6602 136.645H76.2581L76.5275 137.819L76.1486 137.309L75.6602 136.645Z" fill="#9EDDFF"/>
<path d="M77.8942 156.571C77.8855 156.614 77.8438 156.658 77.8438 156.701C77.8438 159.513 95.4715 161.793 117.215 161.793C138.96 161.793 156.586 159.513 156.586 156.701C156.586 156.658 156.545 156.614 156.536 156.571H77.8942Z" fill="#1A56B3"/>
<path d="M45.5938 54.2082C45.5938 54.8795 45.6737 55.5716 45.8423 56.2864L68.6948 144.664C68.7973 145.093 68.9207 145.516 69.0806 145.931C70.7718 152.667 76.9055 157.348 83.8631 157.159L107.753 156.54H154.835C157.684 156.54 160.249 155.425 162.107 153.623C163.972 151.823 165.131 149.336 165.131 146.589C165.131 145.611 164.978 144.679 164.686 143.804C161.991 150.822 83.2965 151.315 77.825 142.229C72.4769 137.586 61.0332 58.4967 53.6811 47.292C52.9372 47.292 52.3184 47.299 51.8526 47.3059C51.4233 47.3129 51.1539 47.3198 51.0583 47.3268C51.0357 47.3337 51.0288 47.3337 51.0288 47.3337C47.7212 48.0641 45.5938 50.7614 45.5938 54.2082Z" fill="#61B8FF"/>
<path d="M85.3047 58.6128C92.5734 53.1939 117.519 48.9854 133.483 56.4738C136.019 58.8772 139.669 67.602 141.949 75.8017L148.255 144.247H94.2837L85.3047 58.6128Z" fill="#AAE0FF"/>
<path d="M114.234 61.7883C105.653 63.0369 100.317 57.0459 99.0625 54.5399L102.516 33.0886L109.498 36.2068C112.352 36.4433 115.204 37.1267 117.657 38.0971L119.871 49.5366L120.359 52.0183C121.473 54.4599 122.815 60.5379 114.234 61.7883Z" fill="#F7A594"/>
<path d="M104.758 38.5374C105.038 41.1912 108.528 51.9472 120.114 50.829L117.964 39.6399L104.758 38.5374Z" fill="#E6836F"/>
<path d="M131.719 25.1343C131.323 28.6211 130.357 36.2399 129.013 39.4276C126.969 44.2796 120.644 48.2081 116.514 47.5403C111.856 46.4064 106.268 42.8344 103.976 38.7007C102.903 35.8017 101.158 29.2124 101.103 23.9709C100.986 13.0392 110.44 6.87943 119.441 7.90025C128.443 8.92108 132.958 14.2652 131.719 25.1343Z" fill="#F7A594"/>
<path d="M101.798 31.395C101.098 27.5708 103.955 27.1169 105.733 30.5168C106.121 27.9517 105.832 19.9363 109.079 18.4442C112.771 16.686 124.44 22.0789 133.289 17.5695C133.289 17.5695 132.145 5.26913 114.085 6.00302C92.8365 9.26549 101.798 31.395 101.798 31.395Z" fill="#73382A"/>
<path d="M103.234 34.2492C104.953 33.7131 105.783 31.4729 105.089 29.2457C104.395 27.0184 102.439 25.6475 100.721 26.1836C99.0024 26.7197 98.1721 28.9598 98.8662 31.1871C99.5603 33.4144 101.516 34.7853 103.234 34.2492Z" fill="#F7A594"/>
<path d="M124.927 39.6972C124.235 39.8241 123.017 40.4015 121.812 41.0397C120.065 41.9666 118.352 43.024 118.352 43.024C118.352 43.024 113.181 39.8954 113.323 34.8748C113.393 34.9513 113.464 35.0261 113.537 35.1008C117.554 39.2433 124.927 39.6972 124.927 39.6972Z" fill="#A65B4A"/>
<path d="M124.929 39.6972C124.237 39.8241 123.019 40.4015 121.814 41.0397C116.572 39.838 114.417 37.019 113.539 35.1008C117.556 39.2433 124.929 39.6972 124.929 39.6972Z" fill="white"/>
<path d="M124.647 37.2642C123.597 37.1999 122.777 36.5895 122.765 36.5808C122.671 36.5095 122.652 36.3756 122.723 36.2817C122.794 36.1878 122.928 36.1686 123.022 36.2399C123.091 36.2921 124.732 37.506 126.22 36.3564C127.037 35.7252 126.825 35.3026 126.255 34.1739C125.716 33.1044 124.899 31.4871 124.617 28.7376C124.605 28.6194 124.69 28.515 124.809 28.5029C124.925 28.4907 125.031 28.5759 125.043 28.6942C125.318 31.3653 126.112 32.9392 126.637 33.9809C127.225 35.1443 127.577 35.8469 126.481 36.6938C125.864 37.1721 125.22 37.299 124.647 37.2642Z" fill="#A65B4A"/>
<path d="M118.958 26.7153C119.008 25.911 118.689 25.2369 118.246 25.2096C117.804 25.1823 117.405 25.8122 117.355 26.6165C117.306 27.4207 117.624 28.0949 118.067 28.1222C118.51 28.1495 118.909 27.5196 118.958 26.7153Z" fill="#1E1E1E"/>
<path d="M130.207 27.2402C130.162 27.9723 129.798 28.5479 129.395 28.5218C128.992 28.4975 128.702 27.8819 128.747 27.1497C128.792 26.4176 129.155 25.842 129.559 25.868C129.96 25.8924 130.25 26.5063 130.207 27.2402Z" fill="#1E1E1E"/>
<path d="M131.005 18.1436C131.005 18.1436 139.866 17.2793 137.097 8.6292C134.353 11.4221 131.562 10.057 131.562 10.057C131.562 10.057 134.817 5.9754 129.434 0C128.576 3.7268 121.183 5.36672 116.953 4.26764C110.253 2.52858 103.47 4.92848 102.751 11.3978C102.751 11.3978 98.3657 12.4673 99.8935 21.1869C106.663 20.9487 109.66 14.7733 114.653 13.8777C119.645 12.9855 123.895 19.1505 131.005 18.1436Z" fill="#73382A"/>
<path d="M122.446 46.1929C122.446 46.1929 119.285 46.9355 117.547 46.8938C115.252 46.8399 111.625 45.5686 111.625 45.5686L117.647 48.7911L122.446 46.1929Z" fill="#A65B4A"/>
<path d="M116.564 61.9731L115.71 65.046L121.79 103.163L118.58 109.355L112.856 103.21L113.802 65.093L112.422 63.0583L114.035 60.7471L116.564 61.9731Z" fill="#1951A6"/>
<path d="M120.205 50.8918C120.087 55.4185 116.555 57.9889 114.023 60.5679C106.512 58.6062 100.817 54.0029 99.1516 49.7388L95.6094 53.2586C96.2403 58.7627 100.648 64.4512 107.35 70.2544C108.372 67.3015 109.942 64.5868 114.407 62.1452L124.457 65.0077C125.025 61.0965 125.468 57.4515 123.184 52.8552L120.205 50.8918Z" fill="#61B8FF"/>
<path d="M175.861 239.077C179.448 239.077 179.448 233.24 175.861 233.24C175.861 233.24 161.586 229.254 161.17 229.254C160.755 229.254 145.51 229.682 145.51 229.682C143.497 232.477 144.168 236.421 144.38 239.457L175.861 239.077Z" fill="#73382A"/>
<path d="M94.6241 239.19C94.3599 236.167 93.9306 232.946 96.0163 230.199C99.5707 228.891 106.292 225.868 113.215 229.776C113.215 229.776 113.349 231.729 118.718 233.95C120.052 235.466 120.591 236.993 119.981 239.19H94.6241Z" fill="#73382A"/>
<path d="M144.954 229.253L160.011 151.811L115.562 144.272V123.038C115.562 123.038 150.25 123.062 149.766 123.062C148.242 123.062 182.377 120.702 187.158 139.244C191.94 157.786 162.957 229.025 162.957 229.025C158.817 228.456 149.282 231.329 145.725 232.445C142.687 233.4 141.853 231.67 144.954 229.253Z" fill="#0D192B"/>
<path d="M142.209 123.062L108.707 150.43L111.47 229.621C102.632 224.743 92.9492 234.044 92.2053 232.974C92.2053 232.974 91.1347 232.461 92.9127 228.223C89.5234 211.175 77.1691 147.275 81.0155 140.169C85.4598 131.961 92.9145 122.581 92.9145 122.581L142.209 123.062Z" fill="#0D192B"/>
<path d="M96.5344 52.3684C97.0471 54.4205 103.104 115.268 102.592 124.504C102.079 133.741 79.5914 135.77 80.0294 154.776C80.4935 174.963 81.1036 183.709 81.1036 183.709C72.7694 182.488 68.2973 172.727 67.0772 166.014C65.1635 154.361 66.5331 141.112 75.208 124.32C75.208 124.32 77.5248 60.7872 80.4118 58.7316C85.5635 55.0622 96.5344 52.3684 96.5344 52.3684Z" fill="white"/>
<path d="M92.0242 79.6973C92.0242 79.6973 89.139 88.1247 89.139 91.6168C89.139 95.1088 106.031 102.446 106.031 102.446H78.4375V89.3803L92.0242 79.6973Z" fill="#D9F1FF"/>
<path d="M107.344 105.061C107.344 105.061 110.655 102.068 115.904 101.653C121.153 101.235 125.757 111.232 125.757 111.232H107.594L107.344 105.061Z" fill="#F7B28A"/>
<path d="M117.304 101.776C117.304 101.776 125.565 104.114 126.717 104.42C127.256 106.601 121.571 105.66 118.941 104.689C116.044 103.623 117.304 101.776 117.304 101.776Z" fill="#F7B28A"/>
<path d="M81.0589 58.0947C76.0132 61.225 62.1102 94.0271 61.9781 102.855C61.919 106.748 63.5511 110.606 70.9414 111.08C75.0225 111.343 109.664 111.64 109.664 111.64L109.223 102.446L83.1116 94.9888L91.0877 81.7459C100.628 76.833 92.4573 52.0028 81.0589 58.0947Z" fill="white"/>
<path d="M170.745 57.9501C170.745 57.9501 167.547 50.1208 167.94 47.987C168.332 45.8532 176.197 43.0968 176.587 44.0428C176.976 44.9906 177.793 47.3262 172.645 48.7313C176.095 51.9138 179.966 58.2527 170.745 57.9501Z" fill="#F7A594"/>
<path d="M170.326 58.3049C170.326 58.3049 169.673 51.2443 170.818 48.4027C172.342 44.6185 176.846 42.1855 176.846 42.1855C176.846 42.1855 184.81 48.4392 185.053 49.5696C185.296 50.7 178.662 57.6249 178.662 57.6249C178.662 57.6249 173.719 62.3238 170.326 58.3049Z" fill="#F7A594"/>
<path d="M171.273 49.0425C171.273 49.0425 173.22 31.4259 175.996 31.9372C177.275 32.1737 175.474 48.9956 175.474 48.9956L171.273 49.0425Z" fill="#F7A594"/>
<path d="M169.852 55.7291C169.869 55.7343 169.89 55.7343 169.909 55.7274C169.958 55.71 169.984 55.6561 169.967 55.6074C169.146 53.3031 167.805 49.2529 168.034 48.006C168.336 46.3608 173.488 44.1974 175.709 43.9661C176.372 43.8966 176.483 44.0357 176.5 44.0809C176.757 44.7052 176.966 45.453 176.572 46.2565C176.078 47.2582 174.75 48.0616 172.621 48.6425L172.456 48.6877L172.581 48.8025C174.013 50.1224 175.725 52.2006 176.234 54.0701C176.248 54.1205 176.3 54.1501 176.351 54.1362C176.401 54.1222 176.431 54.0701 176.417 54.0196C175.913 52.1658 174.258 50.1189 172.833 48.7781C174.92 48.1851 176.234 47.3643 176.74 46.3382C177.227 45.3504 176.839 44.4096 176.676 44.0079C176.587 43.7922 176.266 43.7175 175.69 43.7766C173.438 44.0114 168.177 46.1921 167.848 47.9695C167.61 49.2598 168.962 53.3483 169.789 55.67C169.8 55.6996 169.824 55.7222 169.852 55.7291Z" fill="#E6836F"/>
<path d="M179.422 52.385C179.448 52.3919 179.476 52.3989 179.502 52.4058L179.567 52.4215L179.603 52.3641C180.733 50.5798 183.43 49.8599 183.458 49.8529C183.509 49.839 183.54 49.7886 183.526 49.7381C183.514 49.6877 183.462 49.6564 183.411 49.6703C183.298 49.6999 180.672 50.4007 179.481 52.2059C179.478 52.2059 179.476 52.2041 179.473 52.2041C177.78 51.7172 175.402 47.7121 175.378 47.6704C175.352 47.6252 175.294 47.6113 175.249 47.6373C175.204 47.6634 175.19 47.7226 175.216 47.766C175.315 47.9365 177.656 51.8754 179.422 52.385Z" fill="#E6836F"/>
<path d="M170.626 56.041L167.742 67.0388L176.631 69.8926L177.719 57.3349L170.626 56.041Z" fill="#F7A594"/>
<path d="M143.384 61.4284L161.56 79.6972L169.645 58.6912L180.223 62.0232C180.223 62.0232 180.095 92.721 170.916 99.3329C156.86 107.924 132.775 81.7093 132.775 81.7093C123.355 68.5273 137.748 53.7818 143.384 61.4284Z" fill="white"/>
<path d="M123.312 53.1262C123.312 53.1262 128.169 119.868 136.885 125.511C145.604 131.154 176.41 127.311 176.41 127.311C176.41 127.311 145.673 116.292 145.16 108.084C144.648 99.8738 142.663 60.745 142.663 60.745C139.81 57.2408 130.752 53.088 123.312 53.1262Z" fill="white"/>
<mask id="mask0_1554_5042" style="mask-type:luminance" maskUnits="userSpaceOnUse" x="81" y="40" width="52" height="59">
<path d="M120.211 51.0254L122.179 68.6768C122.179 68.6768 113.25 85.417 119.137 89.7837C125.022 94.1505 130.445 89.4533 132.032 78.5355C133.619 67.6177 127.734 47.502 122.509 43.5979C117.284 39.6937 98.3044 40.0241 96.4534 42.2744C94.6023 44.5248 76.0759 85.9856 83.3742 94.4861C90.6725 102.987 114.201 95.2496 114.201 95.2496L110.388 70.6176L100.039 63.3153C100.039 63.3153 99.4307 49.9176 99.502 50.1298C99.5732 50.3419 100.945 43.5648 100.945 43.5648C107.445 41.6849 112.366 41.4501 118.779 44.0431L120.211 51.0254Z" fill="white"/>
</mask>
<g mask="url(#mask0_1554_5042)">
<path d="M127.501 84.9709C128.024 82.1336 127.153 79.5942 125.555 79.2991C123.957 79.004 122.237 81.0648 121.713 83.9021C121.19 86.7395 122.061 89.2788 123.659 89.5739C125.258 89.8691 126.977 87.8082 127.501 84.9709Z" fill="#1B658F"/>
<path d="M128.513 84.9637C128.854 83.1153 128.286 81.461 127.245 81.2687C126.204 81.0764 125.083 82.419 124.742 84.2674C124.401 86.1158 124.969 87.7701 126.01 87.9624C127.052 88.1547 128.172 86.8121 128.513 84.9637Z" fill="#2997D6"/>
<path d="M125.835 80.6119C126.076 80.6119 126.276 80.4188 126.283 80.1754C126.287 80.0728 126.537 69.8193 125.016 59.0841C123.606 49.1454 115.333 44.3334 108.243 44.0691C101.369 43.8117 96.068 47.5715 94.7401 53.6426C93.5461 59.1084 95.093 68.4315 95.159 68.8263C95.2007 69.0697 95.4302 69.2367 95.6752 69.1932C95.9186 69.1515 96.0837 68.9202 96.042 68.6767C96.0263 68.5811 94.4568 59.1293 95.6144 53.8339C96.845 48.2063 101.793 44.7264 108.207 44.9647C114.937 45.2151 122.79 49.7801 124.126 59.2093C125.637 69.868 125.388 80.0501 125.386 80.151C125.379 80.398 125.576 80.6049 125.822 80.6119C125.826 80.6119 125.831 80.6119 125.835 80.6119Z" fill="#0D192B"/>
<path d="M91.3003 94.4948L94.1455 94.1296C94.3906 94.0983 94.5644 93.874 94.5331 93.6271C94.5018 93.3819 94.2759 93.2079 94.0308 93.2393L91.8773 93.5158C88.9539 85.9422 88.7852 77.8069 91.4897 73.6349C92.8228 71.5776 94.7904 70.4785 97.3384 70.3724C99.7266 70.2698 101.83 71.0611 103.596 72.7184C108.97 77.7616 109.835 89.3959 109.96 91.8932L108.33 91.8306C108.089 91.8132 107.875 92.0132 107.866 92.2619C107.857 92.5088 108.049 92.7175 108.297 92.7262L110.887 92.8254L110.876 92.3489C110.864 91.7645 110.492 77.9616 104.211 72.0645C102.262 70.235 99.9386 69.3637 97.3019 69.4768C94.448 69.5968 92.2406 70.8315 90.7389 73.1479C89.2354 75.4678 88.5263 78.8103 88.6862 82.8119C88.8322 86.4726 89.7169 90.5072 91.1717 94.1714L91.3003 94.4948Z" fill="#0D192B"/>
<path d="M99.0869 68.8839L99.0625 71.096C99.0625 71.096 96.5527 70.1013 94.0464 71.7256C93.405 70.8386 92.9531 70.1708 92.9531 70.1708C92.9531 70.1708 94.9554 67.9988 99.0869 68.8839Z" fill="#1B658F"/>
<path d="M97.2039 69.6628L96.7207 67.1447C96.0202 66.7621 94.5185 67.169 94.2891 67.7151L94.8453 70.1654L97.2039 69.6628Z" fill="#1B658F"/>
</g>
<path d="M133.203 102.503C136.123 102.206 142.262 98.3885 143.727 97.126L161.558 111.553H133.931L133.203 102.503Z" fill="#2B7EAB"/>
<path d="M158.952 111.597C158.203 111.597 135.875 97.9678 135.875 97.9678C130.967 102.028 125.832 104.004 120.641 105.463C122.158 108.479 124.379 110.51 126.856 111.64L158.952 111.597Z" fill="#69BFF0"/>
<path d="M47.9043 111.544H75.4531V107.261H47.9043V111.544Z" fill="#BAE7FF"/>
<path d="M24.4524 111.544H47.9062V107.261H24.4524V111.544Z" fill="#69BFF0"/>
<path d="M71.7361 108.658H49.6797L59.9171 110.707L71.7361 108.658Z" fill="#69BFF0"/>
<path d="M61.0504 116.8H56.4219V238.259H61.0504V116.8Z" fill="#1951A6"/>
<path d="M61.0504 116.849H56.4219V127.276H61.0504V116.849Z" fill="#1951A6"/>
<path d="M266.034 238.766H270.664V217.678H266.034V238.766Z" fill="#1951A6"/>
<path d="M238.174 238.766H242.805V217.678H238.174V238.766Z" fill="#1951A6"/>
<path d="M17.2698 115.501V238.937L12.8672 238.24V115.501H17.2698Z" fill="#1951A6"/>
<path d="M180.143 238.766H184.773V217.678H180.143V238.766Z" fill="#1951A6"/>
<path d="M204.448 238.766H209.078V217.678H204.448V238.766Z" fill="#1951A6"/>
<path d="M0.22229 116.79L223.719 116.79V111.571L0.22229 111.571V116.79Z" fill="#1951A6"/>
<path d="M207.053 116.343H178.445V218.012H207.053V116.343Z" fill="#1951A6"/>
<path d="M273.452 116.343H203.078V218.012H273.452V116.343Z" fill="#1951A6"/>
<path d="M271.538 119.871H206.578V218.013H271.538V119.871Z" fill="#66A1FF"/>
<path d="M50.066 116.79L273.562 116.79V111.571L50.066 111.571V116.79Z" fill="#66A1FF"/>
<path d="M234.18 111.572H246.512L244.08 90.4756H231.75L234.18 111.572Z" fill="#ADADAD"/>
<path d="M230.602 90.4756L230.61 90.5608L231.924 101.957L233.033 111.57H245.365L243.105 91.9573L243.097 91.8981L242.933 90.4756H230.602Z" fill="#474747"/>
<path d="M216.262 111.532H255.43V109.373H216.262V111.532Z" fill="#ADADAD"/>
<path d="M244.868 109.371H213.523V111.531H244.868V109.371Z" fill="#474747"/>
<path d="M230.602 90.561L231.916 101.957L243.097 91.9575L243.154 91.9053L243.088 91.8984L230.602 90.561Z" fill="#2B2B2B"/>
<path d="M199.196 91.8322H266.106C267.564 91.8322 268.841 90.6496 268.961 89.1923L272.783 42.6917C272.903 41.2326 271.819 40.0518 270.362 40.0518H203.452C201.994 40.0518 200.717 41.2343 200.597 42.6917L196.775 89.1923C196.655 90.6496 197.738 91.8322 199.196 91.8322Z" fill="#ADADAD"/>
<path d="M197.954 91.7728H264.864C266.322 91.7728 267.599 90.5903 267.719 89.133L271.541 42.6323C271.661 41.1732 270.577 39.9924 269.12 39.9924H202.211C200.752 39.9924 199.475 41.175 199.355 42.6323L195.533 89.133C195.411 90.592 196.496 91.7728 197.954 91.7728Z" fill="#474747"/>
<path d="M199.414 87.9698H264.381L267.921 43.6187H202.955L199.414 87.9698Z" fill="#D9F3FF"/>
<path d="M204.714 109.371H184.234V111.532H204.714V109.371Z" fill="#ADADAD"/>
<path d="M162.812 110.701V111.532H184.236V109.371L162.812 110.701Z" fill="#474747"/>
<path d="M210.903 80.288L255.449 79.7489C257.321 79.7263 258.953 78.1403 259.094 76.2065L260.753 53.397C260.894 51.4632 259.49 49.9137 257.618 49.9363L213.072 50.4754C211.2 50.498 209.568 52.084 209.427 54.0178L207.768 76.8273C207.627 78.7612 209.029 80.3106 210.903 80.288Z" fill="#80B2FF"/>
<path d="M214.755 59.9496L227.837 59.7913C228.249 59.7861 228.609 59.4366 228.64 59.0123C228.672 58.5862 228.362 58.2453 227.95 58.2505L214.868 58.4088C214.456 58.414 214.096 58.7636 214.065 59.1879C214.033 59.614 214.343 59.9548 214.755 59.9496Z" fill="#D9F3FF"/>
<path d="M214.45 64.16L231.88 63.9496C232.292 63.9443 232.651 63.5948 232.683 63.1705C232.714 62.7444 232.405 62.4035 231.993 62.4088L214.563 62.6192C214.151 62.6244 213.791 62.9739 213.76 63.3983C213.729 63.8243 214.038 64.1652 214.45 64.16Z" fill="#D9F3FF"/>
<path d="M214.098 69.1197L231.528 68.9093C231.94 68.9041 232.3 68.5545 232.331 68.1302C232.362 67.7041 232.053 67.3633 231.641 67.3685L214.211 67.5789C213.799 67.5841 213.44 67.9337 213.408 68.358C213.377 68.7841 213.687 69.1249 214.098 69.1197Z" fill="#D9F3FF"/>
<path d="M213.723 74.078L231.153 73.8675C231.565 73.8623 231.925 73.5128 231.956 73.0884C231.987 72.6624 231.678 72.3215 231.266 72.3267L213.836 72.5371C213.424 72.5424 213.065 72.8919 213.033 73.3162C213.002 73.7423 213.312 74.0832 213.723 74.078Z" fill="#D9F3FF"/>
<path d="M247.753 60.2614C246.401 61.4266 245.45 69.8471 247.206 72.2105C248.011 73.2922 249.398 73.3043 250.602 73.6087C252.029 73.9686 253.176 75.5651 253.769 74.8069C254.862 73.4087 255.128 67.7898 253.308 64.1552C252.676 62.8909 249.106 59.0962 247.753 60.2614Z" fill="#D9F3FF"/>
<path d="M242.113 60.2614C243.465 61.4266 244.416 69.8471 242.661 72.2105C241.856 73.2922 240.469 73.3043 239.265 73.6087C237.838 73.9686 236.69 75.5651 236.098 74.8069C235.004 73.4087 234.739 67.7898 236.558 64.1552C237.191 62.8909 240.759 59.0962 242.113 60.2614Z" fill="#D9F3FF"/>
<path d="M244.2 63.4855V54.5693H245.464V63.3533C245.464 63.4264 245.502 65.1463 247.242 65.5306L247.031 66.4853C245.874 66.2297 245.206 65.5289 244.848 64.8089C244.497 65.5515 243.825 66.2888 242.632 66.5514L242.422 65.5967C243.997 65.2506 244.179 63.8142 244.2 63.4855Z" fill="#D9F3FF"/>
<path d="M276.094 232.26H280.75V223.589H276.094V232.26Z" fill="#0D192B"/>
<path d="M311.008 232.26H315.664V223.589H311.008V232.26Z" fill="#0D192B"/>
<path d="M350.023 232.26H354.68V223.589H350.023V232.26Z" fill="#0D192B"/>
<path d="M351.215 237.849C353.176 237.849 354.766 235.334 354.766 232.232C354.766 229.129 353.176 226.615 351.215 226.615C349.254 226.615 347.664 229.129 347.664 232.232C347.664 235.334 349.254 237.849 351.215 237.849Z" fill="#0D192B"/>
<path d="M347.77 237.849C349.731 237.849 351.321 235.334 351.321 232.232C351.321 229.129 349.731 226.615 347.77 226.615C345.809 226.615 344.219 229.129 344.219 232.232C344.219 235.334 345.809 237.849 347.77 237.849Z" fill="#0D192B"/>
<path d="M346.398 237.395C347.876 238.548 352.006 238.026 352.583 237.43L352.609 227.067C351.5 226.096 347.591 226.129 346.4 227.013L346.398 237.395Z" fill="#0D192B"/>
<path d="M347.441 235.931C348.785 235.931 349.874 234.207 349.874 232.08C349.874 229.954 348.785 228.23 347.441 228.23C346.097 228.23 345.008 229.954 345.008 232.08C345.008 234.207 346.097 235.931 347.441 235.931Z" fill="#1E62CC"/>
<path d="M347.694 234.536C348.512 234.536 349.176 233.485 349.176 232.19C349.176 230.894 348.512 229.844 347.694 229.844C346.875 229.844 346.211 230.894 346.211 232.19C346.211 233.485 346.875 234.536 347.694 234.536Z" fill="#0D192B"/>
<path d="M314.028 237.849C315.989 237.849 317.578 235.334 317.578 232.232C317.578 229.129 315.989 226.615 314.028 226.615C312.066 226.615 310.477 229.129 310.477 232.232C310.477 235.334 312.066 237.849 314.028 237.849Z" fill="#0D192B"/>
<path d="M317.473 237.849C319.434 237.849 321.024 235.334 321.024 232.232C321.024 229.129 319.434 226.615 317.473 226.615C315.512 226.615 313.922 229.129 313.922 232.232C313.922 235.334 315.512 237.849 317.473 237.849Z" fill="#0D192B"/>
<path d="M318.835 237.395C317.358 238.548 313.228 238.026 312.651 237.43L312.625 227.067C313.734 226.096 317.643 226.129 318.833 227.013L318.835 237.395Z" fill="#0D192B"/>
<path d="M317.808 235.931C319.152 235.931 320.242 234.207 320.242 232.08C320.242 229.954 319.152 228.23 317.808 228.23C316.464 228.23 315.375 229.954 315.375 232.08C315.375 234.207 316.464 235.931 317.808 235.931Z" fill="#1E62CC"/>
<path d="M317.553 234.536C318.372 234.536 319.035 233.485 319.035 232.19C319.035 230.894 318.372 229.844 317.553 229.844C316.734 229.844 316.07 230.894 316.07 232.19C316.07 233.485 316.734 234.536 317.553 234.536Z" fill="#0D192B"/>
<path d="M278.567 237.849C280.528 237.849 282.118 235.334 282.118 232.232C282.118 229.129 280.528 226.615 278.567 226.615C276.605 226.615 275.016 229.129 275.016 232.232C275.016 235.334 276.605 237.849 278.567 237.849Z" fill="#0D192B"/>
<path d="M282.012 237.849C283.973 237.849 285.563 235.334 285.563 232.232C285.563 229.129 283.973 226.615 282.012 226.615C280.051 226.615 278.461 229.129 278.461 232.232C278.461 235.334 280.051 237.849 282.012 237.849Z" fill="#0D192B"/>
<path d="M283.374 237.395C281.897 238.548 277.767 238.026 277.19 237.43L277.164 227.067C278.273 226.096 282.182 226.129 283.373 227.013L283.374 237.395Z" fill="#0D192B"/>
<path d="M282.347 235.931C283.691 235.931 284.781 234.207 284.781 232.08C284.781 229.954 283.691 228.23 282.347 228.23C281.004 228.23 279.914 229.954 279.914 232.08C279.914 234.207 281.004 235.931 282.347 235.931Z" fill="#1E62CC"/>
<path d="M282.092 234.536C282.911 234.536 283.575 233.485 283.575 232.19C283.575 230.894 282.911 229.844 282.092 229.844C281.273 229.844 280.609 230.894 280.609 232.19C280.609 233.485 281.273 234.536 282.092 234.536Z" fill="#0D192B"/>
<path d="M309.265 222.094H316.047V151.418H309.265V222.094Z" fill="#0D192B"/>
<path d="M272.859 224.442C272.85 224.383 272.805 224.328 272.805 224.269C272.805 220.528 291.293 217.495 314.098 217.495C336.904 217.495 355.392 220.528 355.392 224.269C355.392 224.328 355.347 224.383 355.338 224.442H272.859Z" fill="#1A56B3"/>
<path d="M318.283 158.944H307.258V172.398H318.283V158.944Z" fill="#1A56B3"/>
<path d="M318.283 206.295H307.258V219.749H318.283V206.295Z" fill="#1A56B3"/>
<path d="M333.352 45.8689V45.8828C333.498 45.8689 333.644 45.8689 333.79 45.8689H333.352Z" fill="#4A82DB"/>
<path d="M380.212 45.6722C380.212 45.6722 380.205 45.6723 380.182 45.6653C380.088 45.6583 379.817 45.6514 379.388 45.6444C378.922 45.6375 378.302 45.6305 377.56 45.6305C367.76 45.587 335.797 45.8705 335.797 45.8705C335.651 45.8705 335.498 45.8705 335.345 45.8844C330.266 46.1105 325.305 50.1208 324.124 55.0266C324.124 55.0266 310.203 124.055 304.026 129.997C297.854 135.931 276.682 135.355 276.682 135.355C272.012 135.355 267.874 138.112 266.554 142.143C266.262 143.018 266.109 143.952 266.109 144.927C266.109 147.675 267.269 150.162 269.134 151.962C270.992 153.762 273.557 154.878 276.406 154.878H323.487L354.05 155.497C361.008 155.687 367.143 151.007 368.833 144.27C368.992 143.854 369.116 143.432 369.218 143.002L385.398 54.6249C385.565 53.9102 385.647 53.218 385.647 52.5467C385.647 49.0982 383.519 46.4009 380.212 45.6722ZM361.772 135.646L361.393 136.155L361.663 134.981H362.261L361.772 135.646Z" fill="#9EDDFF"/>
<path d="M360.021 154.91C360.03 154.953 360.071 154.997 360.071 155.04C360.071 157.852 335.771 160.132 314.028 160.132C292.282 160.132 274.656 157.852 274.656 155.04C274.656 154.997 274.698 154.953 274.707 154.91H360.021Z" fill="#1A56B3"/>
<path d="M385.676 52.547C385.676 53.2183 385.596 53.9105 385.427 54.6252C384.817 56.3938 369.706 142.627 368.861 144.268C367.17 151.007 361.036 155.687 354.077 155.497C335.984 154.913 294.878 154.767 276.431 154.878C269.856 155.014 264.497 148.466 266.581 142.143C264.311 152.865 352.608 154.178 361.855 140.128C368.432 135.203 364.796 41.6292 380.237 45.6743C383.548 46.4012 385.676 49.0985 385.676 52.547Z" fill="#61B8FF"/>
<path d="M337.557 44.0865C346.218 105.1 288.36 96.2791 290.036 71.7201C291.478 50.5628 304.274 48.0881 300.941 34.2156C297.28 18.9884 302.698 5.66553 317.126 5.66553C331.253 5.66553 339.709 15.966 336.691 33.8782C336.092 37.4311 337.19 41.1423 337.557 44.0865Z" fill="#0E0E0E"/>
<path d="M283.336 214.897C283.442 215.502 285.443 227.199 285.443 227.199L293.485 226.508L294.651 212.175L283.336 214.897Z" fill="#FFA599"/>
<path d="M334.508 117.772C334.508 117.772 341.236 136.688 330.114 139.929C318.992 143.171 300.386 144.4 300.386 144.4L294.377 219.229C292.15 220.116 289.762 220.905 284.206 219.771C284.206 219.771 270.516 144.446 274.465 135.416C278.414 126.386 309.3 117.205 309.3 117.205L334.508 117.772Z" fill="#0D192B"/>
<path d="M295.914 228.463C295.316 230.001 290.682 232.185 285.496 233.778C281.952 234.868 278.149 235.68 275.201 235.821C273.36 235.91 271.853 235.738 270.951 235.206C270.951 235.206 268.662 229.282 273.748 226.018C278.832 222.752 284.571 222.1 284.571 222.1C285.304 223.149 286.495 223.837 287.965 224.01C288.949 224.124 290.06 224.008 291.244 223.613C292.194 223.297 293.192 222.801 294.209 222.1C294.209 222.1 294.673 222.589 295.151 223.389C295.199 223.467 295.246 223.547 295.293 223.63C295.959 224.83 296.573 226.601 295.914 228.463Z" fill="white"/>
<path d="M295.527 223.382L295.288 223.63L285.49 233.778C281.946 234.868 278.143 235.68 275.195 235.821C274.994 233.955 275.077 230 278.677 227.199C280.894 225.474 284.591 224.528 287.96 224.009C289.116 223.832 290.233 223.703 291.238 223.613C293.045 223.449 294.49 223.401 295.145 223.389C295.392 223.382 295.527 223.382 295.527 223.382Z" fill="#DBF2FF"/>
<path d="M290.883 216.742C290.989 217.347 291.847 229.037 291.847 229.037L298.751 228.95L300.729 216.502L290.883 216.742Z" fill="#FFA599"/>
<path d="M300.097 221.427C300.097 221.427 302.52 226.119 303.057 227.31C300.354 235.204 281.891 241.35 279.98 238.979C279.98 238.979 276.537 233.646 280.855 229.416C285.172 225.187 291.41 223.227 291.41 223.227C293.466 225.166 298.844 224.637 300.097 221.427Z" fill="white"/>
<path d="M352.811 120.447C352.811 120.447 356.452 136.928 342.586 141.393C331.559 144.945 312.606 152.191 312.606 152.191L300.573 219.249C300.067 220.675 292.051 221.206 291.032 220.06C291.032 220.06 288.237 146.24 293.784 138.093C302.297 125.585 313.838 117.939 313.838 117.939C325.516 116.598 342.546 115.346 352.811 120.447Z" fill="#0D192B"/>
<path d="M290.765 220.07C290.633 217.102 287.616 147.261 293.558 137.945C295.103 135.525 296.961 133.083 299.085 130.69L299.494 131.053C297.391 133.425 295.548 135.843 294.019 138.241C288.168 147.413 291.279 219.323 291.311 220.048L290.765 220.07Z" fill="#2A518C"/>
<path d="M307.414 59.1833C313.117 52.1836 317.366 56.3487 317.113 64.2127C316.859 72.0767 311.547 106.352 305.188 103.997C298.83 101.642 300.257 67.969 307.414 59.1833Z" fill="#FFA599"/>
<path d="M311.658 89.5995L307.834 116.298C308.208 117.67 310.276 118.833 313.374 119.746C313.862 119.892 314.378 120.03 314.915 120.162C314.915 120.162 314.917 120.163 314.917 120.162C325.471 122.751 344.89 122.906 353.324 119.541C353.324 119.541 352.668 115.019 349.98 107.767C347.936 102.256 344.717 95.1645 339.718 87.2814C339.4 84.9423 341.374 80.8121 343.349 76.0784C346.493 68.5396 349.639 59.4669 343.536 53.6359C333.601 44.1406 307.613 46.8344 305.907 65.6179C305.646 77.767 311.658 89.5995 311.658 89.5995Z" fill="#FD5655"/>
<path d="M311.984 121.61C312.165 121.581 313.232 121.028 314.914 120.16C314.914 120.16 314.916 120.162 314.916 120.16C322.107 116.456 340.544 106.985 349.12 107.752C349.424 107.778 349.709 107.783 349.979 107.767C347.935 102.256 344.716 95.1645 339.717 87.2814C339.399 84.9423 341.373 80.8121 343.348 76.0784L332.123 63.3293C332.123 63.3293 332.163 63.6198 332.233 64.145C332.832 68.7378 335.683 91.3542 334.145 95.0045C332.735 98.3453 318.046 114.259 313.373 119.748C312.358 120.939 311.814 121.638 311.984 121.61Z" fill="#E64847"/>
<path d="M314.731 55.1977C315.059 57.4585 317.969 63.4652 317.969 63.4652C317.969 63.4652 330.007 55.982 329.579 53.0343L327.626 45.1321L326.352 39.9932L314.086 41.7792L314.51 50.5579L314.731 55.1977Z" fill="#FFA599"/>
<path d="M314.51 50.5578L323.079 44.8189L314.086 41.7791L314.51 50.5578Z" fill="#E87C5D"/>
<path d="M303.287 25.7502C302.594 36.7428 308.813 45.8085 317.176 45.9998C325.54 46.1911 332.167 37.4193 331.978 26.4076C331.799 16.0324 325.57 7.91446 318.052 7.74229C310.537 7.57012 303.941 15.3941 303.287 25.7502Z" fill="#FFA599"/>
<path d="M313.567 18.0287C324.011 31.4246 339.056 26.0979 335.59 18.0861C335.59 18.0861 331.558 7.05002 319.372 6.8709C304.133 6.6483 313.567 18.0287 313.567 18.0287Z" fill="#0E0E0E"/>
<path d="M316.484 33.7915C316.093 33.7828 315.715 33.6906 315.5 33.4193C314.97 32.7533 316.395 29.496 316.685 28.8508C316.722 28.7691 316.817 28.7343 316.897 28.7708C316.979 28.8073 317.014 28.903 316.977 28.983C316.287 30.5151 315.451 32.8437 315.75 33.2193C316.1 33.6593 317.304 33.4106 317.737 33.2785C317.822 33.2524 317.911 33.2993 317.937 33.3845C317.963 33.4698 317.914 33.5584 317.831 33.5845C317.723 33.6193 317.089 33.8054 316.484 33.7915Z" fill="#BD4A31"/>
<path d="M314.227 37.5705C314.227 37.5705 318.89 38.9965 325.041 35.8105C321.659 40.6921 317.232 43.7389 314.227 37.5705Z" fill="#BD4A31"/>
<path d="M324.108 27.7325C324.089 28.5429 323.75 29.1916 323.349 29.1829C322.947 29.1742 322.638 28.5099 322.657 27.6995C322.676 26.8891 323.015 26.2404 323.417 26.2491C323.816 26.2578 324.126 26.9221 324.108 27.7325Z" fill="#0E0E0E"/>
<path d="M310.124 27.0909C310.105 27.9013 309.766 28.55 309.364 28.5413C308.963 28.5326 308.654 27.8683 308.673 27.0579C308.692 26.2475 309.031 25.5988 309.432 25.6075C309.832 25.6179 310.141 26.2823 310.124 27.0909Z" fill="#0E0E0E"/>
<path d="M313.496 15.4967C313.496 15.4967 311.641 25.6876 303.02 26.3624C297.253 26.8145 305.643 9.48829 311.132 9.82567C314.368 10.0257 313.496 15.4967 313.496 15.4967Z" fill="#0E0E0E"/>
<path d="M345.502 57.6582C345.502 57.6582 341.02 52.7784 333.805 58.2043C327.899 62.6458 337.881 90.9542 337.881 90.9542L308.438 118.922L310.694 121.767C310.694 121.767 345.93 106.985 350.416 95.3018C351.956 87.9074 348.965 62.8215 345.502 57.6582Z" fill="#FFA599"/>
<path d="M311.337 93.801L312.936 121.45L309.135 122.087C309.135 122.087 300.912 103.11 301.286 92.3924C301.614 82.9998 312.481 85.2449 311.337 93.801Z" fill="#FFA599"/>
<path d="M313.31 119.73C313.31 119.73 317.478 122.224 315.473 123.916C313.467 125.607 306.24 125.508 308.305 121.007C310.37 116.506 313.31 119.73 313.31 119.73Z" fill="#FFA599"/>
<path d="M308.427 118.454C308.102 118.389 300.859 123.53 303.042 125.761C305.225 127.992 316.139 121.299 313.982 118.572C311.823 115.843 308.427 118.454 308.427 118.454Z" fill="#FFA599"/>
</svg>
