<svg width="76" height="87" viewBox="0 0 76 87" fill="none" xmlns="http://www.w3.org/2000/svg">
<path d="M52.5 17.4997C52.17 17.4997 51.61 17.6197 51.53 17.4797C48.6 12.1897 43.56 13.5797 39 13.5097C35.83 13.4597 32.67 13.4997 29 13.4997C29 34.8297 29 56.1697 29 77.4997" stroke="#0D79BB" stroke-width="2" stroke-miterlimit="10" stroke-linecap="round" stroke-linejoin="round"/>
<path d="M52.4987 26C50.0587 27.02 47.4887 26.24 44.6787 26.59C42.9187 30.42 44.5487 34.54 44.6887 38.49C44.7987 41.79 45.6087 45.13 45.4687 48.49C45.3587 51.12 46.3787 52.21 49.0087 52.03C49.9887 51.96 50.9987 52.42 52.0087 52.48C59.0487 52.87 60.7187 51.2 60.5087 44C60.3387 38.32 62.3287 32.71 61.2687 27.11C58.4587 25.63 55.5287 27.4 52.9987 26" stroke="#0D79BB" stroke-width="2" stroke-miterlimit="10" stroke-linecap="round" stroke-linejoin="round"/>
<path d="M15.5 77.9997C18.83 75.4997 22.29 73.1397 25.45 70.4497C27.42 68.7697 29.77 68.2797 31.41 69.6097C35.34 72.8097 40.24 74.9297 43 79.4997" stroke="#0D79BB" stroke-width="2" stroke-miterlimit="10" stroke-linecap="round" stroke-linejoin="round"/>
<path d="M59.5 41.5C55 41.5 50.5 41.5 46 41.5" stroke="#0D79BB" stroke-width="2" stroke-miterlimit="10" stroke-linecap="round" stroke-linejoin="round"/>
<path d="M62.5 13C59 13.24 56 13.99 53.89 17.43C52.24 20.12 53.87 22.99 52.5 25.5" stroke="#0D79BB" stroke-width="2" stroke-miterlimit="10" stroke-linecap="round" stroke-linejoin="round"/>
<path d="M52.5 53C53.44 55.11 52.83 57.33 53 59.5" stroke="#0D79BB" stroke-width="2" stroke-miterlimit="10" stroke-linecap="round" stroke-linejoin="round"/>
</svg>
