<svg width="68" height="65" viewBox="0 0 68 65" fill="none" xmlns="http://www.w3.org/2000/svg">
<g clip-path="url(#clip0_443_5260)">
<path d="M33.6286 64.7197C24.9786 64.7197 16.3286 64.7697 7.66859 64.6997C1.86859 64.6597 0.0385937 62.7597 0.0185937 56.8497C-0.0114063 44.3697 -0.0114063 31.8897 0.0185937 19.4097C0.0285937 13.4097 1.97859 11.5597 8.13859 11.4997C9.13859 11.4897 10.1386 11.4197 11.1286 11.5097C16.0486 11.9597 19.5686 11.2597 22.6686 6.06968C27.9786 -2.80031 42.0486 -1.70032 47.2586 7.60968C49.0186 10.7597 50.8286 11.5997 54.1386 11.5697C67.2386 11.4397 67.2486 11.5397 67.2486 24.4497C67.2486 35.2597 67.2786 46.0797 67.2386 56.8897C67.2186 62.8197 65.4286 64.6497 59.5786 64.6897C50.9286 64.7597 42.2786 64.7197 33.6286 64.7197ZM33.3886 62.3097C41.8786 62.3097 50.3786 62.2297 58.8686 62.3397C63.0786 62.3997 64.9186 60.6597 64.8786 56.3797C64.7686 44.2197 64.7586 32.0697 64.8886 19.9097C64.9386 15.5697 62.9386 13.9297 58.8286 13.9397C42.0086 13.9997 25.1886 14.0097 8.36859 13.9697C4.27859 13.9597 2.21859 15.6197 2.24859 19.9297C2.34859 32.0897 2.32859 44.2397 2.27859 56.3997C2.25859 60.6097 4.21859 62.3997 8.39859 62.3497C16.7286 62.2397 25.0586 62.3097 33.3886 62.3097ZM34.4486 11.4997C37.5886 11.4997 40.7286 11.4797 43.8586 11.5097C45.8286 11.5197 46.1486 10.7397 45.1786 9.10968C42.8086 5.08968 39.2186 2.86968 34.6686 2.71968C30.0786 2.57968 26.4286 4.74969 23.8486 8.58969C22.4786 10.6297 23.0886 11.5697 25.5286 11.5197C28.5086 11.4597 31.4786 11.5097 34.4486 11.4997Z" fill="#0D79BB"/>
<path d="M46.6775 38.2802C46.5875 45.5002 40.8875 51.1802 33.6975 51.2202C26.3875 51.2602 20.1975 45.0802 20.4075 37.9702C20.6175 30.9802 26.6775 24.9202 33.5375 24.8502C40.6675 24.7802 46.7675 31.0102 46.6775 38.2802ZM33.6875 48.5602C39.3875 48.5202 44.1375 43.7202 44.0775 38.0602C44.0175 32.4002 39.1375 27.5502 33.5475 27.5802C28.0775 27.6202 23.0775 32.7202 23.1175 38.2102C23.1675 43.8702 27.9975 48.6002 33.6875 48.5602Z" fill="#0D79BB"/>
<path d="M40.0887 38.3201C39.6587 38.7001 39.2787 39.2901 38.9787 39.2601C35.7687 38.9201 34.4787 40.3901 34.6887 43.5101C34.7087 43.7801 34.0487 44.3001 33.6587 44.3601C32.9187 44.4701 32.4487 43.9501 32.3487 43.2201C32.2587 42.5601 32.0987 41.8701 32.2287 41.2401C32.9387 37.6201 25.8987 41.2601 28.2287 37.2401C28.9987 35.9101 32.8487 36.5001 32.4887 32.8701C32.3887 31.8701 34.2787 31.2201 34.4087 32.4901C34.7187 35.7001 36.2487 36.9701 39.2387 37.1201C39.5087 37.1501 39.7587 37.8401 40.0887 38.3201Z" fill="#0D79BB"/>
</g>
<defs>
<clipPath id="clip0_443_5260">
<rect width="67.27" height="64.74" fill="white"/>
</clipPath>
</defs>
</svg>
