<svg width="63" height="67" viewBox="0 0 63 67" fill="none" xmlns="http://www.w3.org/2000/svg">
<g clip-path="url(#clip0_443_5266)">
<path d="M32.579 3.5C31.929 6.2 29.989 6.37 27.589 6.57C8.789 8.1 -5.041 28.15 3.659 48.46C3.969 49.18 4.459 50.52 5.829 50.5" stroke="#0D79BB" stroke-width="2" stroke-miterlimit="10" stroke-linecap="round" stroke-linejoin="round"/>
<path d="M60.0798 54.25C59.7298 52.07 57.2698 51.43 56.4598 49.75C64.7698 32.94 57.8198 17.63 43.5498 9.06004C43.0098 8.74004 41.7698 8.57004 41.0898 9.50004" stroke="#0D79BB" stroke-width="2" stroke-miterlimit="10" stroke-linecap="round" stroke-linejoin="round"/>
<path d="M50.0781 57.5C39.8181 67.31 25.8981 68.14 14.1881 60.33C10.3081 57.74 7.73813 57.67 4.57812 60.5" stroke="#0D79BB" stroke-width="2" stroke-miterlimit="10" stroke-linecap="round" stroke-linejoin="round"/>
<path d="M30.3302 23.5004C30.2502 23.4204 30.1102 23.3404 30.0902 23.2504C28.6502 16.3804 28.0302 16.1504 21.5802 20.0004C13.9502 24.5604 10.9402 31.2604 12.5702 40.0004C12.7902 41.1604 12.9102 42.3304 13.0802 43.5004" stroke="#0D79BB" stroke-width="2" stroke-miterlimit="10" stroke-linecap="round" stroke-linejoin="round"/>
<path d="M39.5781 19.5C45.1181 24.03 49.4881 29.07 48.6781 37.01C48.4781 38.99 46.4681 40.85 48.0781 43" stroke="#0D79BB" stroke-width="2" stroke-miterlimit="10" stroke-linecap="round" stroke-linejoin="round"/>
<path d="M42.5798 50C35.5998 54.4 28.5298 56.69 20.8398 51C23.0198 49.63 23.7998 46.85 26.5798 46.5" stroke="#0D79BB" stroke-width="2" stroke-miterlimit="10" stroke-linecap="round" stroke-linejoin="round"/>
<path d="M43.5795 37C44.0495 43.16 42.6995 49.42 44.5995 55.54C50.3195 57.77 55.8995 54.5 61.5795 55" stroke="#0D79BB" stroke-width="2" stroke-miterlimit="10" stroke-linecap="round" stroke-linejoin="round"/>
<path d="M6.08082 58.9996C4.65082 53.3596 7.00082 48.4596 8.90082 43.0996C13.8808 44.9296 19.3108 44.1296 23.5808 47.4996" stroke="#0D79BB" stroke-width="2" stroke-miterlimit="10" stroke-linecap="round" stroke-linejoin="round"/>
<path d="M32.5781 1C32.6881 3.65 35.3481 4.3 36.7281 5.87C39.1881 8.67 41.0581 11.68 42.7881 14.88C38.7681 19.63 32.8981 21.52 28.5781 25.5" stroke="#0D79BB" stroke-width="2" stroke-miterlimit="10" stroke-linecap="round" stroke-linejoin="round"/>
<path d="M38.5781 36C33.5781 36 28.5781 36 23.5781 36" stroke="#0D79BB" stroke-width="2" stroke-miterlimit="10" stroke-linecap="round" stroke-linejoin="round"/>
<path d="M31.0781 29C31.0781 33.67 31.0781 38.33 31.0781 43" stroke="#0D79BB" stroke-width="2" stroke-miterlimit="10" stroke-linecap="round" stroke-linejoin="round"/>
</g>
<defs>
<clipPath id="clip0_443_5266">
<rect width="62.58" height="66.6" fill="white"/>
</clipPath>
</defs>
</svg>
