<svg width="67" height="57" viewBox="0 0 67 57" fill="none" xmlns="http://www.w3.org/2000/svg">
<g clip-path="url(#clip0_443_5307)">
<path d="M31.6816 12.08C28.8116 9.27001 26.5116 5.93001 22.7116 4.02001C15.9216 0.600007 9.90164 1.97001 4.12164 8.02001C0.401641 11.9 -0.128359 21.1 3.26164 25.51C6.19164 29.32 9.79164 32.62 13.1916 36.06C18.8216 41.77 24.5416 47.38 30.1616 53.09C31.7716 54.72 33.9316 56.26 35.5516 54.46C38.0816 51.66 40.9116 49.12 43.7816 46.59C40.5916 41.13 35.1616 38.59 32.6816 33.57" stroke="#0D79BB" stroke-width="2" stroke-miterlimit="10" stroke-linecap="round" stroke-linejoin="round"/>
<path d="M53.6824 33.5799C58.4024 31.0799 61.6024 26.9699 64.0824 22.5299C67.2424 16.8798 65.5024 8.39985 60.6424 4.63985C55.5124 0.67985 48.7424 -1.00015 41.2224 4.63985C33.4524 10.4598 27.6024 18.3298 20.7024 25.0998C19.7024 26.0798 19.8024 27.4498 20.6924 28.5598C21.8224 29.9798 23.3524 30.1499 24.6524 29.0399C27.2524 26.8199 29.6624 24.3898 32.1824 22.0798C35.6324 18.9198 39.5424 19.4199 42.7124 23.0399C45.1924 25.8699 48.0024 28.4198 50.6724 31.0698C55.0524 35.4098 55.0124 35.7998 49.2724 39.8498C45.7924 36.6398 42.2324 33.3598 38.6624 30.0698" stroke="#0D79BB" stroke-width="2" stroke-miterlimit="10" stroke-linecap="round" stroke-linejoin="round"/>
<path d="M27.6836 38.5801C30.1936 43.3201 34.8136 46.1201 38.1836 50.0801" stroke="#0D79BB" stroke-width="2" stroke-miterlimit="10" stroke-linecap="round" stroke-linejoin="round"/>
</g>
<defs>
<clipPath id="clip0_443_5307">
<rect width="66.68" height="56.27" fill="white"/>
</clipPath>
</defs>
</svg>
