<svg width="56" height="56" viewBox="0 0 56 56" fill="none" xmlns="http://www.w3.org/2000/svg">
<path d="M47.6 0H8.4C6.17218 0 4.03561 0.884998 2.4603 2.4603C0.884998 4.03561 0 6.17218 0 8.4V47.6C0 49.8278 0.884998 51.9644 2.4603 53.5397C4.03561 55.115 6.17218 56 8.4 56H47.6C49.8278 56 51.9644 55.115 53.5397 53.5397C55.115 51.9644 56 49.8278 56 47.6V8.4C56 6.17218 55.115 4.03561 53.5397 2.4603C51.9644 0.884998 49.8278 0 47.6 0ZM50.4 47.6C50.4 48.3426 50.105 49.0548 49.5799 49.5799C49.0548 50.105 48.3426 50.4 47.6 50.4H8.4C7.65739 50.4 6.9452 50.105 6.4201 49.5799C5.895 49.0548 5.6 48.3426 5.6 47.6V8.4C5.6 7.65739 5.895 6.9452 6.4201 6.4201C6.9452 5.895 7.65739 5.6 8.4 5.6H47.6C48.3426 5.6 49.0548 5.895 49.5799 6.4201C50.105 6.9452 50.4 7.65739 50.4 8.4V47.6ZM42 19.6H36.4V14C36.4 13.2574 36.105 12.5452 35.5799 12.0201C35.0548 11.495 34.3426 11.2 33.6 11.2H22.4C21.6574 11.2 20.9452 11.495 20.4201 12.0201C19.895 12.5452 19.6 13.2574 19.6 14V19.6H14C13.2574 19.6 12.5452 19.895 12.0201 20.4201C11.495 20.9452 11.2 21.6574 11.2 22.4V33.6C11.2 34.3426 11.495 35.0548 12.0201 35.5799C12.5452 36.105 13.2574 36.4 14 36.4H19.6V42C19.6 42.7426 19.895 43.4548 20.4201 43.9799C20.9452 44.505 21.6574 44.8 22.4 44.8H33.6C34.3426 44.8 35.0548 44.505 35.5799 43.9799C36.105 43.4548 36.4 42.7426 36.4 42V36.4H42C42.7426 36.4 43.4548 36.105 43.9799 35.5799C44.505 35.0548 44.8 34.3426 44.8 33.6V22.4C44.8 21.6574 44.505 20.9452 43.9799 20.4201C43.4548 19.895 42.7426 19.6 42 19.6ZM39.2 30.8H33.6C32.8574 30.8 32.1452 31.095 31.6201 31.6201C31.095 32.1452 30.8 32.8574 30.8 33.6V39.2H25.2V33.6C25.2 32.8574 24.905 32.1452 24.3799 31.6201C23.8548 31.095 23.1426 30.8 22.4 30.8H16.8V25.2H22.4C23.1426 25.2 23.8548 24.905 24.3799 24.3799C24.905 23.8548 25.2 23.1426 25.2 22.4V16.8H30.8V22.4C30.8 23.1426 31.095 23.8548 31.6201 24.3799C32.1452 24.905 32.8574 25.2 33.6 25.2H39.2V30.8Z" fill="#0D79BB"/>
</svg>
