<svg width="56" height="68" viewBox="0 0 56 68" fill="none" xmlns="http://www.w3.org/2000/svg">
<g clip-path="url(#clip0_443_5313)">
<path d="M28.9417 45.91C28.9417 51.58 29.0217 57.24 28.9117 62.91C28.8517 65.87 26.9617 67.71 24.1217 67.44C21.3217 67.17 19.8017 65.14 20.0917 62.13C20.1717 61.27 20.3217 60.36 21.2917 60.18C22.4017 59.97 22.6017 60.92 22.7317 61.74C22.9317 63.01 22.6917 64.84 24.6017 64.62C26.7417 64.38 26.1117 62.34 26.1217 60.98C26.1817 50.82 26.1917 40.65 26.1417 30.49C26.1117 25.26 22.4017 22.85 17.9117 25.47C15.2217 27.04 13.2517 27.36 10.7317 25.38C8.89172 23.93 6.71172 24.44 4.56172 25.28C0.771721 26.76 -0.478279 25.73 0.191721 21.95C2.30172 9.9 14.2817 0.109999 27.0017 -5.24218e-07C40.3317 -0.110001 52.3017 9.09 54.7917 21.41C55.0817 22.84 55.5717 24.54 54.2417 25.64C53.1017 26.58 51.7117 26.11 50.5017 25.37C50.2217 25.2 49.8817 24.93 49.6017 24.97C43.8817 25.8 38.2517 26.45 32.4217 24.95C30.5417 24.46 28.8217 26.69 28.9117 29.41C29.0717 34.9 28.9617 40.41 28.9617 45.91C28.9517 45.91 28.9417 45.91 28.9417 45.91ZM3.22172 22.05C19.6717 23.08 35.7417 22.93 51.8117 22.15C49.5617 10.73 39.6317 2.76 27.6017 2.72C15.5717 2.68 5.64172 10.55 3.22172 22.05Z" fill="#0D79BB"/>
<path d="M41.0127 55.1198C40.1427 51.3698 39.7627 47.7698 34.5927 48.6798C33.5327 48.8698 33.6227 46.5698 34.4427 46.6398C39.3727 47.0798 40.2327 43.6998 40.6327 39.3398C41.4927 40.3898 42.0127 40.7198 42.0027 41.0498C41.9327 44.4198 42.6227 46.9398 46.9027 46.2498C47.7127 46.1198 48.5527 46.7098 48.5927 47.6598C48.6327 48.3998 47.9327 48.9498 47.2727 48.7898C41.9127 47.4998 42.4227 51.9198 41.0127 55.1198Z" fill="#0D79BB"/>
</g>
<defs>
<clipPath id="clip0_443_5313">
<rect width="55.12" height="67.46" fill="white"/>
</clipPath>
</defs>
</svg>
