<svg width="65" height="56" viewBox="0 0 65 56" fill="none" xmlns="http://www.w3.org/2000/svg">
<g clip-path="url(#clip0_443_5280)">
<path d="M0.0289888 25.88C0.0289888 21.39 0.0789888 16.9 0.00898877 12.41C-0.0410112 8.69 1.49899 6.96 5.39899 7.06C12.219 7.23 19.039 7.05 25.859 7.13C28.469 7.16 30.659 7.29 31.189 3.74C31.569 1.17 33.729 0 36.379 0C39.229 0 41.439 1.25 41.839 4.07C42.269 7.15 44.069 7.39 46.379 7.08C50.599 6.52 53.229 8.15 54.879 12.18C56.439 16 58.299 19.8 60.649 23.18C64.479 28.71 65.079 35.03 63.669 40.86C62.409 46.08 59.509 51.47 54.599 54.58C49.919 57.55 43.329 54.8 41.809 49.19C41.019 46.25 39.669 45.99 37.339 46.08C35.179 46.17 33.009 46.22 30.849 46.07C27.639 45.84 25.469 46.05 24.469 50.16C23.559 53.91 19.959 55.73 15.849 55.56C11.969 55.4 8.99899 53.52 7.84899 49.9C7.03899 47.36 6.13899 46.14 3.29899 45.8C0.598989 45.47 0.0289888 42.84 0.0189888 40.35C0.0189888 40.02 0.00898877 39.68 0.00898877 39.35C0.00898877 34.86 0.00898877 30.37 0.00898877 25.87C0.00898877 25.88 0.0189888 25.88 0.0289888 25.88ZM53.669 15.95C51.909 12.45 51.289 9.26 46.689 9.33C33.529 9.55 20.359 9.49 7.19899 9.32C3.36899 9.27 2.36899 10.81 2.45899 14.39C2.66899 22.22 2.47899 30.05 2.57899 37.89C2.59899 39.74 1.62899 42.17 4.10899 43.19C6.65899 44.24 7.83899 42.28 9.30899 40.56C13.259 35.94 19.349 35.75 23.099 40.52C25.069 43.01 27.049 43.6 29.839 43.45C32.499 43.31 35.169 43.4 37.839 43.43C39.859 43.45 41.439 43.25 42.999 41.34C47.709 35.55 53.159 35.66 58.109 41.25C58.739 41.96 58.949 43.33 60.209 42.97C61.629 42.57 61.439 41.18 61.459 40.04C61.479 38.71 61.319 37.35 61.499 36.04C61.969 32.63 60.409 31.73 57.239 31.91C53.249 32.14 49.239 31.96 45.239 31.96C43.269 31.96 41.719 31.59 41.169 29.23C38.919 19.6 41.269 16.4 50.959 16.18C51.629 16.16 52.289 16.07 53.669 15.95ZM51.589 29.23C53.419 29.23 55.249 29.12 57.069 29.25C60.149 29.48 60.349 28.43 59.089 25.87C55.719 19.02 53.649 17.86 45.889 19.08C45.059 19.21 43.859 19.17 43.789 20.01C43.589 22.65 43.249 25.41 43.839 27.92C44.389 30.25 46.939 28.92 48.599 29.19C49.579 29.36 50.599 29.23 51.589 29.23ZM50.479 53.1C53.779 53.14 57.499 49.66 57.179 46.39C56.819 42.71 54.649 40.27 50.829 39.88C47.289 39.52 44.089 42.66 43.999 46.27C43.909 49.87 46.929 53.06 50.479 53.1ZM22.649 46.35C22.609 42.64 19.589 39.52 16.039 39.86C12.279 40.23 9.98899 42.46 9.66899 46.26C9.38899 49.57 12.899 53.06 16.219 53.09C19.729 53.13 22.679 50.04 22.649 46.35ZM33.549 5.43C33.759 7.73 35.589 6.97 36.889 7.07C38.239 7.17 39.699 7.09 39.399 5.11C39.139 3.44 37.889 2.46 36.329 2.54C34.799 2.62 33.629 3.6 33.549 5.43Z" fill="#0D79BB"/>
<path d="M15.5171 29.9104C16.7171 24.4304 12.2771 24.1604 8.84706 22.5304C8.01706 22.1404 9.71706 21.1104 10.6071 21.2304C14.0071 21.6704 15.5271 20.3804 15.1571 16.8904C15.0771 16.1404 15.2171 15.1004 16.2971 15.0604C17.4071 15.0104 17.6171 15.9904 17.5071 16.8004C17.0571 20.1904 18.3071 21.7504 21.8471 21.2104C22.6671 21.0804 23.6271 21.2504 23.7971 22.2604C23.9771 23.2804 23.0771 23.8504 22.3071 23.7504C18.3371 23.2604 17.0071 25.1204 17.4171 28.8204C17.4971 29.5404 16.9471 29.9704 15.5171 29.9104Z" fill="#0D79BB"/>
</g>
<defs>
<clipPath id="clip0_443_5280">
<rect width="64.36" height="55.79" fill="white"/>
</clipPath>
</defs>
</svg>
