<svg width="65" height="73" viewBox="0 0 65 73" fill="none" xmlns="http://www.w3.org/2000/svg">
<path d="M42.8645 23.4377C44.5955 29.1379 43.3798 34.983 43.6294 40.7476C43.8387 45.5702 43.6616 50.409 43.6777 55.2396C43.6858 61.8174 41.4395 67.2519 35.1918 70.0779C29.2742 72.7508 23.5096 72.5657 17.8416 68.6206C13.9691 65.9235 12.1092 62.2361 11.9885 58.0575C11.6423 46.6652 11.8677 35.2487 11.8838 23.8403C11.8838 23.5746 12.1334 23.3008 12.2703 23.0352" stroke="#EC126C" stroke-width="2" stroke-miterlimit="10" stroke-linecap="round" stroke-linejoin="round"/>
<path d="M42.8657 18.2047C45.4743 12.883 41.4487 4.2602 36.0223 2.49701C30.3704 0.661351 24.6219 0.315153 19.1471 2.58557C12.8351 5.20218 10.4036 11.8122 12.674 18.6073" stroke="#EC126C" stroke-width="2" stroke-miterlimit="10" stroke-linecap="round" stroke-linejoin="round"/>
<path d="M42.4629 18.2042C39.0895 18.5021 39.2425 15.4588 38.9607 13.76C37.6645 5.9343 30.346 3.37404 23.1322 5.70082C19.0986 6.99705 17.4723 10.1692 16.3049 13.7841C15.6849 15.7164 15.4595 17.5923 13.1327 18.7275C10.8301 19.8547 11.3293 22.3022 13.5192 22.8739C15.7574 23.4535 15.4273 25.0557 15.8379 26.2714C18.3337 33.6302 24.8632 37.535 31.9401 34.9747C35.7242 33.606 38.2844 30.1762 39.5645 26.2312C39.9349 25.0799 39.8383 23.84 41.2472 23.4455C44.2342 22.6243 43.3325 20.5551 42.8575 18.6068" stroke="#EC126C" stroke-width="2" stroke-miterlimit="10" stroke-linecap="round" stroke-linejoin="round"/>
<path d="M34.4138 50.0069C34.2689 53.638 32.6828 55.0791 28.778 55.0308C26.5076 54.9986 24.2291 54.3304 21.9345 54.8215C20.3646 55.1596 19.3179 53.646 19.2374 52.8168C18.7705 48.3242 15.6144 48.1149 12.2812 47.9941" stroke="#EC126C" stroke-width="2" stroke-miterlimit="10" stroke-linecap="round" stroke-linejoin="round"/>
<path d="M1.40282 35.917C1.40282 38.4692 1.37062 41.0134 1.41087 43.5656C1.47528 47.3818 2.38506 48.3238 6.23349 48.3721C7.97254 48.3962 9.71963 48.1305 11.4667 47.9937" stroke="#EC126C" stroke-width="2" stroke-miterlimit="10" stroke-linecap="round" stroke-linejoin="round"/>
<path d="M34.4122 64.498C30.6523 64.498 26.9005 64.498 23.1406 64.498" stroke="#EC126C" stroke-width="2" stroke-miterlimit="10" stroke-linecap="round" stroke-linejoin="round"/>
<path d="M33.2055 35.1123C34.4454 37.4713 37.6578 37.3827 38.9057 39.9108C39.9926 42.1248 40.8944 44.3389 39.1795 46.3195C37.7142 48.0022 36.4501 50.3128 33.1814 49.2984C30.0898 48.3403 28.2621 46.3195 28.1172 43.5579C27.9401 40.1523 30.7902 38.4455 33.6161 37.1251" stroke="#EC126C" stroke-width="2" stroke-miterlimit="10" stroke-linecap="round" stroke-linejoin="round"/>
<path d="M22.1344 34.709C18.9622 36.601 15.8142 38.5172 15.4922 42.7601" stroke="#EC126C" stroke-width="2" stroke-miterlimit="10" stroke-linecap="round" stroke-linejoin="round"/>
<path d="M23.9461 59.668C20.9913 59.668 18.0446 59.668 15.0898 59.668" stroke="#EC126C" stroke-width="2" stroke-miterlimit="10" stroke-linecap="round" stroke-linejoin="round"/>
<path d="M12.6758 43.5656C16.2988 43.5656 19.9218 43.5817 23.5448 43.5576C24.8893 43.5495 26.2822 43.8072 27.5704 43.1631" stroke="#EC126C" stroke-width="2" stroke-miterlimit="10" stroke-linecap="round" stroke-linejoin="round"/>
<path d="M4.62301 57.2529C2.86786 57.9212 1.66019 59.1288 1 60.8759" stroke="#EC126C" stroke-width="2" stroke-miterlimit="10" stroke-linecap="round" stroke-linejoin="round"/>
<path d="M56.1504 21.0225C53.26 21.3606 54.6207 24.0175 53.6062 25.4506C52.3905 25.7163 51.046 25.9981 49.7739 26.2718C49.1379 27.6002 49.1379 28.9367 49.7739 30.2651C51.046 30.5389 52.3825 30.8287 53.6062 31.0864C54.6126 32.5195 53.252 35.3374 56.1504 35.4662C59.1374 35.595 58.5416 32.7368 59.4191 30.9334C60.5624 30.7482 61.7862 30.555 63.1227 30.3376C63.5494 28.9367 63.5494 27.6002 63.1227 26.1993C61.7862 25.982 60.5624 25.7887 59.5238 25.6197C58.2034 24.1221 59.709 21.0869 56.5529 21.0225" stroke="#EC126C" stroke-width="2" stroke-miterlimit="10" stroke-linecap="round" stroke-linejoin="round"/>
</svg>
