<svg width="65" height="74" viewBox="0 0 65 74" fill="none" xmlns="http://www.w3.org/2000/svg">
<path d="M43.4231 24.0153C45.1541 29.7155 43.9384 35.5607 44.188 41.3253C44.3973 46.1479 44.2202 50.9866 44.2363 55.8173C44.2443 62.395 41.9981 67.8296 35.7504 70.6555C29.8328 73.3285 24.0682 73.1433 18.4002 69.1982C14.5277 66.5011 12.6678 62.8137 12.5471 58.6352C12.2009 47.2428 12.4263 35.8263 12.4424 24.4179C12.4424 24.1522 12.692 23.8785 12.8289 23.6128" stroke="#0D79BB" stroke-width="2" stroke-miterlimit="10" stroke-linecap="round" stroke-linejoin="round"/>
<path d="M43.4243 18.7824C46.0329 13.4606 42.0073 4.83784 36.5809 3.07464C30.929 1.23899 25.1805 0.89279 19.7057 3.16321C13.3936 5.77982 10.9622 12.3898 13.2326 19.1849" stroke="#0D79BB" stroke-width="2" stroke-miterlimit="10" stroke-linecap="round" stroke-linejoin="round"/>
<path d="M43.0215 18.7823C39.6481 19.0802 39.8011 16.0369 39.5193 14.3381C38.2231 6.51243 30.9046 3.95217 23.6908 6.27894C19.6572 7.57517 18.0309 10.7473 16.8634 14.3623C16.2435 16.2945 16.0181 18.1705 13.6913 19.3057C11.3887 20.4328 11.8878 22.8804 14.0778 23.452C16.316 24.0317 15.9859 25.6338 16.3965 26.8496C18.8923 34.2083 25.4218 38.1131 32.4987 35.5528C36.2828 34.1841 38.843 30.7544 40.1231 26.8093C40.4935 25.658 40.3969 24.4181 41.8058 24.0236C44.7928 23.2024 43.8911 21.1333 43.416 19.1849" stroke="#0D79BB" stroke-width="2" stroke-miterlimit="10" stroke-linecap="round" stroke-linejoin="round"/>
<path d="M34.9724 50.5841C34.8275 54.2151 33.2414 55.6563 29.3366 55.608C27.0662 55.5758 24.7877 54.9075 22.4931 55.3986C20.9232 55.7368 19.8765 54.2232 19.796 53.3939C19.329 48.9014 16.173 48.6921 12.8398 48.5713" stroke="#0D79BB" stroke-width="2" stroke-miterlimit="10" stroke-linecap="round" stroke-linejoin="round"/>
<path d="M1.96141 36.4946C1.96141 39.0468 1.92921 41.591 1.96947 44.1432C2.03387 47.9594 2.94365 48.9014 6.79209 48.9497C8.53113 48.9739 10.2782 48.7082 12.0253 48.5713" stroke="#0D79BB" stroke-width="2" stroke-miterlimit="10" stroke-linecap="round" stroke-linejoin="round"/>
<path d="M34.9708 65.0762C31.2109 65.0762 27.4591 65.0762 23.6992 65.0762" stroke="#0D79BB" stroke-width="2" stroke-miterlimit="10" stroke-linecap="round" stroke-linejoin="round"/>
<path d="M33.7641 35.6895C35.004 38.0484 38.2164 37.9599 39.4643 40.4879C40.5512 42.702 41.4529 44.916 39.7381 46.8966C38.2728 48.5793 37.0087 50.89 33.74 49.8755C30.6483 48.9175 28.8207 46.8966 28.6758 44.1351C28.4987 40.7295 31.3488 39.0226 34.1747 37.7022" stroke="#0D79BB" stroke-width="2" stroke-miterlimit="10" stroke-linecap="round" stroke-linejoin="round"/>
<path d="M22.693 35.2871C19.5208 37.1791 16.3728 39.0953 16.0508 43.3382" stroke="#0D79BB" stroke-width="2" stroke-miterlimit="10" stroke-linecap="round" stroke-linejoin="round"/>
<path d="M24.5047 60.2456C21.5499 60.2456 18.6032 60.2456 15.6484 60.2456" stroke="#0D79BB" stroke-width="2" stroke-miterlimit="10" stroke-linecap="round" stroke-linejoin="round"/>
<path d="M13.2344 44.1433C16.8574 44.1433 20.4804 44.1594 24.1034 44.1352C25.4479 44.1272 26.8408 44.3848 28.129 43.7407" stroke="#0D79BB" stroke-width="2" stroke-miterlimit="10" stroke-linecap="round" stroke-linejoin="round"/>
<path d="M5.1816 57.8301C3.42645 58.4983 2.21879 59.706 1.55859 61.4531" stroke="#0D79BB" stroke-width="2" stroke-miterlimit="10" stroke-linecap="round" stroke-linejoin="round"/>
<path d="M56.709 21.6001C53.8186 21.9382 55.1793 24.5951 54.1648 26.0282C52.9491 26.2939 51.6046 26.5757 50.3325 26.8494C49.6965 28.1779 49.6965 29.5143 50.3325 30.8428C51.6046 31.1165 52.9411 31.4064 54.1648 31.664C55.1712 33.0971 53.8106 35.915 56.709 36.0438C59.696 36.1726 59.1002 33.3145 59.9777 31.511C61.121 31.3259 62.3448 31.1326 63.6813 30.9152C64.108 29.5143 64.108 28.1779 63.6813 26.777C62.3448 26.5596 61.121 26.3664 60.0824 26.1973C58.762 24.6998 60.2676 21.6645 57.1115 21.6001" stroke="#0D79BB" stroke-width="2" stroke-miterlimit="10" stroke-linecap="round" stroke-linejoin="round"/>
</svg>
