<svg width="54" height="54" viewBox="0 0 54 54" fill="none" xmlns="http://www.w3.org/2000/svg">
<rect x="1" y="1" width="52" height="52" rx="7" stroke="#0D79BB" stroke-width="2"/>
<path d="M40 21L40 20L40 21ZM22 14H32V12H22V14ZM22 20V14H20V20H22ZM14 22L20 22L20 20L14 20L14 22ZM14 32V22H12V32H14ZM20 32H14V34H20V32ZM22 40V34H20V40H22ZM32 40H22V42H32V40ZM32 34V40H34V34H32ZM40 32H34V34H40V32ZM40 22V32H42V22H40ZM34 22L40 22L40 20L34 20L34 22ZM32 14V20H34V14H32ZM34 20L34 20H32C32 21.1046 32.8954 22 34 22L34 20ZM42 22C42 20.8954 41.1046 20 40 20L40 22L40 22H42ZM40 34C41.1046 34 42 33.1046 42 32H40V32V34ZM34 34V34V32C32.8954 32 32 32.8954 32 34H34ZM32 42C33.1046 42 34 41.1046 34 40H32L32 40V42ZM20 40C20 41.1046 20.8954 42 22 42V40H22H20ZM20 34H22C22 32.8954 21.1046 32 20 32V34ZM12 32C12 33.1046 12.8954 34 14 34V32V32H12ZM14 20C12.8954 20 12 20.8954 12 22H14V22L14 20ZM20 20H20L20 22C21.1046 22 22 21.1046 22 20H20ZM32 14L32 14H34C34 12.8954 33.1046 12 32 12V14ZM22 12C20.8954 12 20 12.8954 20 14H22L22 14V12Z" fill="#0D79BB"/>
</svg>
