<svg width="68" height="60" viewBox="0 0 68 60" fill="none" xmlns="http://www.w3.org/2000/svg">
<g clip-path="url(#clip0_371_1967)">
<path d="M13.5396 12.2501C-0.120393 12.2001 0.999607 11.1001 1.02961 24.7501C1.04961 33.4201 1.02961 42.0901 1.02961 50.9501C9.39961 52.0501 17.4896 49.7401 25.2796 52.2501" stroke="#0D79BB" stroke-width="2" stroke-miterlimit="10" stroke-linecap="round" stroke-linejoin="round"/>
<path d="M53.5391 12.2501C67.1891 12.2001 66.0791 11.1001 66.0391 24.7501C66.0191 33.4201 66.0391 42.0901 66.0391 50.6401C59.7391 52.1101 53.8591 50.5401 48.0391 51.2201C46.2891 51.4201 44.4491 51.0501 43.0391 52.5101" stroke="#0D79BB" stroke-width="2" stroke-miterlimit="10" stroke-linecap="round" stroke-linejoin="round"/>
<path d="M52.5391 50.25C52.5391 33.91 52.5391 17.58 52.5391 1C39.7091 1 27.3691 1 14.5391 1C14.5391 17.58 14.5391 33.91 14.5391 50.25" stroke="#0D79BB" stroke-width="2" stroke-miterlimit="10" stroke-linecap="round" stroke-linejoin="round"/>
<path d="M39.5391 50.75C40.5191 45.08 39.8391 39.42 40.0491 33.75C35.5391 33.75 31.5391 33.75 27.2891 33.75C27.2891 39.42 27.2891 45.08 27.2891 51.01C25.3291 53.03 22.1291 54.41 21.0391 57.75" stroke="#0D79BB" stroke-width="2" stroke-miterlimit="10" stroke-linecap="round" stroke-linejoin="round"/>
<path d="M18.5391 58.75C28.5391 58.75 38.5391 58.75 48.5391 58.75" stroke="#0D79BB" stroke-width="2" stroke-miterlimit="10" stroke-linecap="round" stroke-linejoin="round"/>
<path d="M28.0391 50.75C30.1491 51.69 32.4591 51.54 34.5191 51.16C40.3791 50.07 43.8491 52.67 46.0391 57.75" stroke="#0D79BB" stroke-width="2" stroke-miterlimit="10" stroke-linecap="round" stroke-linejoin="round"/>
<path d="M33.5391 9.75C33.5391 13.75 33.5391 17.75 33.5391 21.75" stroke="#0D79BB" stroke-width="2" stroke-miterlimit="10" stroke-linecap="round" stroke-linejoin="round"/>
<path d="M38.5391 16.75C35.2091 16.75 31.8691 16.75 28.5391 16.75" stroke="#0D79BB" stroke-width="2" stroke-miterlimit="10" stroke-linecap="round" stroke-linejoin="round"/>
<path d="M33.0391 5.75C27.5991 7.24 23.3191 9.86 23.0491 16.25C22.8291 21.48 26.2291 25.65 31.5391 26.75C36.9591 27.87 41.6991 25.1 43.5391 19.75C45.1791 14.98 43.1891 10.51 38.5791 7.69C36.9591 6.7 35.2891 6.22 33.5391 5.75" stroke="#0D79BB" stroke-width="2" stroke-miterlimit="10" stroke-linecap="round" stroke-linejoin="round"/>
</g>
<defs>
<clipPath id="clip0_371_1967">
<rect width="67.08" height="59.75" fill="white"/>
</clipPath>
</defs>
</svg>
