<svg width="1923" height="405" viewBox="0 0 1923 405" fill="none" xmlns="http://www.w3.org/2000/svg">
<path fill-rule="evenodd" clip-rule="evenodd" d="M1164.08 344.27C1164.08 329.142 1164.08 314.015 1164.08 298.887C1164.08 255.546 1164.08 212.204 1164.07 168.862V2.45867C1164.32 0.487862 1165.26 0 1167.89 0C1380.96 0.0847768 1594.04 0.0847768 1807.11 0C1809.77 0 1810.71 0.50003 1810.94 2.53263V115.51C1810.92 176.629 1810.92 237.748 1810.92 298.865L1810.92 325.982L1810.92 344.27L1810.87 344.27L1810.82 344.27L1810.77 344.27L1810.72 344.27L1810.67 344.269L1810.62 344.269L1810.57 344.269L1810.52 344.269C1794.43 344.236 1778.35 344.202 1762.25 344.185C1750.83 344.177 1739.4 344.177 1727.97 344.236C1727.89 344.237 1727.82 344.235 1727.73 344.232C1727.62 344.228 1727.5 344.221 1727.38 344.214C1726.31 344.151 1725.02 344.077 1725.15 345.703C1725.24 346.841 1726.26 346.812 1727.21 346.784C1727.48 346.777 1727.74 346.769 1727.97 346.788C1728.54 346.834 1729.12 346.821 1729.7 346.808H1729.7H1729.7L1729.71 346.808C1729.81 346.806 1729.91 346.804 1730.01 346.802C1730.05 346.801 1730.09 346.8 1730.12 346.8L1730.19 346.799L1730.27 346.798C1730.31 346.797 1730.36 346.797 1730.41 346.797L1730.5 346.796C1743.91 346.796 1757.31 346.798 1770.71 346.801C1784.12 346.803 1797.52 346.805 1810.92 346.805C1810.92 350.919 1810.92 355.033 1810.92 359.147L1810.92 359.421C1810.91 369.836 1810.9 380.25 1810.94 390.662V402.695C1810.82 403.662 1810.47 404.164 1809.61 404.385H1166.07C1166.04 404.385 1166.01 404.384 1165.98 404.383C1164.76 404.115 1164.25 403.464 1164.07 402.157V389.028C1164.11 379.339 1164.1 369.651 1164.09 359.965C1164.08 355.295 1164.08 350.626 1164.08 345.957C1164.16 345.988 1164.23 346.025 1164.31 346.062C1164.5 346.15 1164.68 346.237 1164.87 346.237C1169.39 346.244 1173.91 346.247 1178.43 346.25H1178.45C1189.74 346.258 1201.03 346.266 1212.32 346.339C1214.84 346.355 1215.39 344.796 1215.86 342.964C1217.27 337.376 1218.67 331.785 1220.07 326.193L1220.07 326.174L1220.07 326.169L1220.07 326.168L1220.07 326.167L1220.07 326.166L1220.07 326.165L1220.07 326.164L1220.07 326.164C1222.1 318.082 1224.12 310 1226.17 301.924C1228.61 292.253 1231.08 282.592 1233.54 272.93L1233.54 272.928L1233.54 272.925L1233.54 272.923L1233.54 272.921L1233.55 272.918L1233.55 272.916L1233.55 272.895C1234.24 270.203 1234.93 267.51 1235.61 264.817C1238.24 276.474 1240.15 288.105 1241.99 299.737C1245.01 318.847 1248.01 337.958 1251.01 357.068C1252.21 364.713 1253.41 372.358 1254.61 380.003C1254.63 380.163 1254.65 380.331 1254.68 380.503L1254.68 380.504L1254.68 380.504C1254.8 381.521 1254.93 382.66 1256.05 382.776C1257.51 382.932 1257.81 381.629 1258.07 380.517C1258.11 380.366 1258.14 380.219 1258.18 380.08C1260.15 372.433 1262.11 364.777 1264 357.114L1264.03 357.01C1266.67 346.279 1266.68 346.271 1277.81 346.347C1281.76 346.373 1283.72 346.385 1285.03 345.472C1286.31 344.573 1286.98 342.78 1288.29 339.224L1288.3 339.2C1288.37 339.017 1288.57 338.889 1288.83 338.731L1288.83 338.731L1288.83 338.731C1288.96 338.648 1289.11 338.557 1289.26 338.446C1289.78 340.661 1290.29 342.86 1290.8 345.046L1290.82 345.131C1292.03 350.287 1293.22 355.377 1294.4 360.471C1294.42 360.552 1294.44 360.635 1294.46 360.718C1294.67 361.635 1294.89 362.63 1295.96 362.7C1297.07 362.776 1297.37 361.754 1297.62 360.9C1297.65 360.799 1297.68 360.701 1297.71 360.606C1297.86 360.13 1298.01 359.653 1298.16 359.177L1298.16 359.171L1298.17 359.165L1298.17 359.159C1299.12 356.141 1300.08 353.122 1300.8 350.052C1301.46 347.271 1302.73 346.22 1305.75 346.254C1322.13 346.423 1338.52 346.432 1354.91 346.296C1357.7 346.271 1358.51 347.33 1359.06 349.78C1359.62 352.344 1360.4 354.858 1361.17 357.372L1361.17 357.374C1361.52 358.501 1361.86 359.628 1362.19 360.759C1362.45 361.624 1362.84 362.446 1363.81 362.471C1364.83 362.497 1365.18 361.624 1365.4 360.776C1365.54 360.255 1365.66 359.732 1365.78 359.209L1365.78 359.209C1365.88 358.77 1365.97 358.331 1366.08 357.894C1367.08 353.804 1368.08 349.719 1369.15 345.351L1370.91 338.183C1371.21 338.875 1371.47 339.426 1371.7 339.891C1372.1 340.707 1372.37 341.256 1372.43 341.828C1372.89 345.847 1375.24 346.737 1378.91 346.423C1380.71 346.272 1382.53 346.318 1384.35 346.365C1386.21 346.412 1388.07 346.459 1389.91 346.296C1393.02 346.016 1394.41 347.381 1395.73 349.925C1400.24 358.583 1404.89 367.17 1409.54 375.755L1409.55 375.769L1409.55 375.783L1409.56 375.796L1409.57 375.809C1410.49 377.504 1411.4 379.199 1412.32 380.893C1412.4 381.034 1412.47 381.18 1412.54 381.328C1413.04 382.309 1413.57 383.368 1414.99 383.191C1416.16 383.045 1416.51 382.102 1416.84 381.171L1416.84 381.17C1416.9 381.023 1416.95 380.876 1417.01 380.732C1417.61 379.218 1418.21 377.707 1418.82 376.196L1418.82 376.193L1418.82 376.19L1418.83 376.186L1418.83 376.183L1418.83 376.18L1418.83 376.177C1419.59 374.293 1420.34 372.409 1421.09 370.517C1424.84 360.941 1428.59 351.366 1432.41 341.59L1432.48 341.42L1432.57 341.194L1432.62 341.048C1434.01 337.517 1435.4 333.96 1436.8 330.367C1437.55 331.721 1438.28 333.024 1439.01 334.299C1440.62 337.14 1442.14 339.836 1443.46 342.634C1444.79 345.474 1446.6 346.466 1449.69 346.44C1457.14 346.378 1464.58 346.375 1472.03 346.371C1480.83 346.367 1489.63 346.363 1498.43 346.262C1501.79 346.22 1503.67 346.949 1504.34 350.51C1504.74 352.664 1505.47 354.758 1506.2 356.851C1506.5 357.697 1506.79 358.544 1507.07 359.394C1507.15 359.656 1507.21 359.952 1507.27 360.253C1507.48 361.275 1507.7 362.353 1508.92 362.353C1510.4 362.353 1510.6 361.125 1510.78 359.973L1510.78 359.973C1510.82 359.68 1510.87 359.393 1510.93 359.131C1512.06 354.582 1513.18 350.024 1514.35 345.217L1514.35 345.212C1514.96 342.703 1515.59 340.125 1516.25 337.445C1516.5 338.29 1516.74 339.031 1516.95 339.704C1517.37 341.023 1517.71 342.084 1517.95 343.168C1518.49 345.448 1519.74 346.381 1522.15 346.364C1529.01 346.327 1535.86 346.335 1542.72 346.344C1548.44 346.351 1554.15 346.358 1559.87 346.339C1560.07 346.339 1560.31 346.358 1560.55 346.379C1561.63 346.469 1562.93 346.577 1562.86 345.135C1562.8 343.839 1561.55 343.949 1560.46 344.045C1560.19 344.069 1559.93 344.092 1559.7 344.092C1551.3 344.047 1542.89 344.048 1534.48 344.049L1530.89 344.049C1521.18 344.049 1521.17 344.033 1518.28 334.977L1518.24 334.843C1518.14 334.54 1518.08 334.182 1518.01 333.813C1517.79 332.571 1517.55 331.202 1515.93 331.358C1514.51 331.495 1514.34 332.833 1514.18 334.087C1514.13 334.466 1514.08 334.837 1514 335.165C1512.8 340.077 1511.63 345.003 1510.43 350.092L1510.43 350.105L1510.42 350.143L1510 351.908C1509.78 352.829 1509.56 353.756 1509.34 354.689C1507.63 353.002 1507.33 351.239 1507.1 349.704C1506.41 344.948 1503.81 343.855 1499.25 343.931C1490.52 344.083 1481.79 344.075 1473.05 344.067C1465.68 344.06 1458.31 344.054 1450.94 344.143C1447.86 344.177 1446.37 343.041 1445.14 340.472C1443.65 337.343 1441.95 334.305 1440.26 331.276L1440.03 330.86L1439.8 330.454L1439.56 330.022L1439.36 329.654C1439.24 329.456 1439.14 329.242 1439.03 329.025L1439.03 329.025C1438.52 327.965 1437.97 326.837 1436.45 327.069C1435.22 327.255 1434.88 328.304 1434.55 329.305L1434.55 329.306L1434.55 329.306L1434.55 329.307C1434.51 329.44 1434.46 329.571 1434.42 329.7C1434.39 329.791 1434.35 329.881 1434.32 329.968C1432.64 334.248 1430.97 338.531 1429.3 342.814L1429.29 342.821L1429.29 342.828L1429.29 342.835L1429.29 342.842L1429.27 342.873C1427.36 347.768 1425.45 352.664 1423.53 357.554C1421.49 362.736 1419.41 367.904 1417.25 373.295L1417.24 373.314L1417.24 373.318L1417.24 373.33C1416.38 375.47 1415.51 377.644 1414.62 379.868C1412.98 376.854 1411.33 373.924 1409.7 371.039L1409.7 371.038L1409.7 371.038L1409.7 371.037L1409.7 371.036L1409.7 371.035L1409.7 371.034L1409.7 371.033C1405.94 364.368 1402.32 357.937 1399.25 351.247C1396.48 345.236 1392.87 343.566 1386.58 343.905C1376.3 344.459 1376.17 344.075 1372.98 334.773L1372.87 334.453C1372.77 334.187 1372.7 333.891 1372.63 333.59C1372.36 332.45 1372.07 331.239 1370.64 331.333C1369.24 331.429 1369.13 332.608 1369.02 333.727C1368.98 334.086 1368.95 334.44 1368.87 334.75C1367.68 339.575 1366.53 344.41 1365.37 349.244L1365.37 349.249C1364.93 351.097 1364.49 352.944 1364.05 354.791C1362.83 352.951 1362.02 351.23 1361.85 349.45C1361.43 344.965 1359.1 343.888 1354.8 343.956C1344.07 344.12 1333.33 344.088 1322.59 344.056C1317.22 344.04 1311.85 344.024 1306.49 344.033C1305.9 344.033 1305.36 344.031 1304.87 344.029C1301.97 344.016 1300.68 344.011 1299.93 344.647C1299.33 345.161 1299.08 346.093 1298.63 347.777C1298.42 348.567 1298.16 349.523 1297.8 350.679C1297.7 351.005 1297.63 351.346 1297.55 351.69C1297.29 352.834 1297.02 354.024 1295.87 354.884C1295.5 353.303 1295.13 351.731 1294.77 350.165C1293.75 345.768 1292.73 341.424 1291.64 337.098C1291.5 336.549 1291.44 335.899 1291.37 335.238C1291.2 333.417 1291.01 331.518 1289.19 331.469C1287.49 331.418 1287.07 333.392 1286.67 335.236C1286.54 335.849 1286.41 336.448 1286.24 336.954L1286.16 337.202C1283.84 343.991 1283.83 344.016 1277.56 344.033C1264.31 344.058 1264.31 344.075 1261.35 356.923L1261.3 357.156C1260.4 361.07 1259.3 364.939 1258.21 368.808L1258.21 368.812C1257.73 370.498 1257.26 372.184 1256.8 373.874C1256 373.179 1255.86 372.645 1255.78 372.094C1249.87 334.75 1243.96 297.405 1238.04 260.07C1237.99 259.758 1237.97 259.411 1237.95 259.057C1237.88 257.771 1237.81 256.392 1236.22 256.306C1234.6 256.22 1234.42 257.591 1234.24 258.855C1234.19 259.212 1234.15 259.561 1234.07 259.866L1232.47 266.161L1232.47 266.161C1226.28 290.581 1220.09 315.004 1214.05 339.463C1213.2 342.939 1211.86 344.194 1208.14 344.143C1197.62 344.033 1187.11 344.111 1176.59 344.189H1176.59H1176.59H1176.58H1176.58H1176.58H1176.57H1176.57C1172.4 344.22 1168.24 344.251 1164.08 344.27ZM1164.07 389.028V168.862C1164.07 113.873 1164.05 58.8833 1164 3.89125C1164 3.34347 1164.02 2.86894 1164.07 2.45867V0H1167.89H1807.11H1810.94V2.53263C1810.98 2.9257 1811 3.37609 1811 3.89125C1810.97 41.0968 1810.95 78.3033 1810.94 115.51V390.662C1810.95 394.259 1810.97 397.856 1810.99 401.452C1810.99 401.933 1810.98 402.344 1810.94 402.695V404.385H1809.61C1809.2 404.49 1808.67 404.531 1807.99 404.529C1784.59 404.43 1761.2 404.439 1737.8 404.448C1731.12 404.45 1724.44 404.453 1717.75 404.453L1675.55 404.453H1675.37C1506.2 404.452 1337.03 404.452 1167.86 404.538C1167.1 404.538 1166.48 404.492 1165.98 404.383C1164.92 404.334 1164.07 403.458 1164.07 402.385V402.157C1164.02 401.717 1164 401.203 1164 400.604C1164.03 396.745 1164.06 392.887 1164.07 389.028ZM1590.67 85.0396H1590.71C1590.71 81.9149 1590.71 78.7903 1590.71 75.6658V75.6656V75.6653C1590.72 63.9544 1590.72 52.2447 1590.65 40.5402C1590.65 40.2051 1590.7 39.8016 1590.76 39.3797C1590.95 37.9766 1591.17 36.3706 1589.42 36.4031C1587.78 36.4363 1587.95 38.1085 1588.09 39.5737L1588.09 39.5743C1588.14 39.9821 1588.17 40.3739 1588.17 40.7098C1588.1 65.5479 1588.07 90.3925 1588.04 115.232L1588.03 125.893V125.894C1588.02 133.871 1588.02 134.074 1580.03 133.871C1576.33 133.778 1575.33 135.177 1575.66 138.534C1575.84 140.322 1575.96 142.027 1573.09 142.332C1565.25 143.146 1562.26 146.706 1562.26 154.582C1562.25 160.784 1562.25 166.987 1562.25 173.189C1562.22 210.358 1562.2 247.528 1562.21 284.697L1562.21 284.862L1562.21 284.99L1562.22 285.213C1562.23 287.997 1562.25 290.477 1558.06 289.894C1556.6 289.691 1556.16 290.818 1556.15 292.09C1556.15 292.617 1556.16 293.146 1556.18 293.675V293.676C1556.2 294.704 1556.23 295.734 1556.14 296.753C1555.89 299.508 1556.97 300.457 1559.76 300.406C1564.04 300.324 1568.32 300.341 1572.6 300.359C1575.81 300.372 1579.01 300.385 1582.22 300.356C1584.28 300.339 1585.27 300.822 1585.26 303.162C1585.2 326.899 1585.2 350.628 1585.26 374.366C1585.26 376.604 1584.46 377.384 1582.3 377.282C1580.61 377.199 1578.93 377.224 1577.24 377.249H1577.24H1577.24H1577.24H1577.24H1577.24H1577.24H1577.24C1576.93 377.254 1576.63 377.259 1576.33 377.263C1575.92 377.268 1575.5 377.272 1575.09 377.274C1569.62 377.298 1569.62 377.314 1569.3 381.91L1569.27 382.293C1569.26 382.42 1569.25 382.549 1569.24 382.682C1568.91 387.252 1570.82 388.066 1574.88 387.955C1584.9 387.693 1594.95 387.676 1604.97 387.964C1609.13 388.083 1610.38 386.769 1610.09 382.682C1610.07 382.447 1610.05 382.221 1610.04 382.005C1609.71 377.246 1609.71 377.224 1604.31 377.248C1603.63 377.251 1602.95 377.234 1602.27 377.216L1602.27 377.216C1600.83 377.18 1599.38 377.143 1597.96 377.299C1594.38 377.689 1593.11 376.587 1593.14 372.704C1593.34 349.958 1593.31 327.213 1593.15 304.467C1593.12 300.949 1594.33 300.237 1597.52 300.33C1601.78 300.453 1606.05 300.433 1610.32 300.413H1610.33C1613.4 300.399 1616.48 300.384 1619.55 300.423C1622.02 300.457 1623.3 299.694 1623 297.041C1622.89 296.066 1622.89 295.049 1623.01 294.082C1623.37 291.157 1622.58 289.352 1619.19 289.801C1616.65 290.14 1616 288.784 1616.16 286.554C1616.23 285.587 1616.21 284.615 1616.19 283.643C1616.18 283.2 1616.17 282.758 1616.17 282.315C1616.18 268.024 1616.18 253.732 1616.19 239.439V239.437V239.435C1616.2 210.921 1616.21 182.406 1616.2 153.895C1616.2 147.206 1612.76 143.044 1606.32 142.408C1603.7 142.145 1602.73 141.119 1603.07 138.737C1603.64 134.634 1601.64 133.473 1597.96 133.939C1597.41 134.009 1596.85 133.982 1596.3 133.955C1595.72 133.927 1595.14 133.899 1594.57 133.981C1591.35 134.447 1590.55 133.1 1590.58 129.971C1590.72 118.736 1590.7 107.5 1590.69 96.2685V96.2673V96.2661V96.2649V96.2637V96.2626V96.2614V96.2602C1590.68 92.5195 1590.67 88.7793 1590.67 85.0396ZM1648.76 353.121C1648.76 355.967 1648.77 358.813 1648.78 361.659C1648.81 368.977 1648.83 376.296 1648.69 383.615C1648.64 386.989 1649.75 387.964 1653.08 387.93C1668.89 387.777 1684.7 387.769 1700.51 387.921C1704.07 387.955 1705.09 386.794 1705.05 383.293C1704.91 368.185 1704.88 353.078 1705.11 337.98C1705.27 327.204 1704.61 316.65 1701.24 306.265C1699.95 302.303 1699 298.23 1698.05 294.155L1698.05 294.154L1698.05 294.153L1698.05 294.152L1698.05 294.152L1698.05 294.151L1698.05 294.15L1698.05 294.149C1697.31 290.943 1696.56 287.736 1695.64 284.579C1694.58 280.908 1695.4 279.687 1699.16 280.094C1702.07 280.408 1704.74 279.882 1704.85 276.169C1704.99 271.659 1704.98 267.132 1704.89 262.621C1704.84 259.993 1703.55 258.459 1700.67 258.459C1684.72 258.484 1668.77 258.484 1652.82 258.45C1649.7 258.442 1648.56 260.061 1648.59 262.952C1648.6 263.708 1648.61 264.465 1648.62 265.221V265.222C1648.67 268.418 1648.72 271.617 1648.55 274.804C1648.34 278.932 1650.25 280.611 1654.14 280.094C1658.25 279.543 1658.86 280.823 1657.94 284.833C1656.93 289.208 1655.76 293.555 1654.59 297.903L1654.59 297.904C1650.99 311.215 1647.4 324.535 1648.7 338.709C1649 341.971 1648.92 345.266 1648.84 348.557C1648.8 350.08 1648.76 351.602 1648.76 353.121ZM1564.56 219.632C1564.56 212.615 1564.56 205.598 1564.56 198.583C1564.56 184.552 1564.56 170.523 1564.56 156.49C1564.57 147.046 1567.15 144.528 1576.73 144.536C1579.25 144.539 1581.77 144.534 1584.29 144.529L1584.3 144.529C1590.96 144.517 1597.62 144.504 1604.27 144.621C1610.78 144.74 1613.91 148.19 1614.04 154.345C1614.1 157.041 1613.1 157.889 1610.6 157.6C1609.79 157.509 1608.96 157.558 1608.14 157.606L1607.92 157.619C1607.83 157.624 1607.73 157.629 1607.64 157.634C1606.77 157.685 1605.85 157.855 1605.86 158.965C1605.86 160.025 1606.72 160.237 1607.61 160.407C1608.31 160.54 1609.13 160.452 1609.95 160.366C1611.45 160.205 1612.91 160.049 1613.51 161.322C1614.13 162.668 1614.07 164.32 1614 165.991C1613.96 166.941 1613.93 167.898 1614.01 168.808C1614.27 171.47 1613.17 172.275 1610.63 172.114C1607.82 171.936 1604.98 171.979 1602.16 172.123C1601.83 172.141 1601.43 172.1 1601.02 172.058C1599.73 171.926 1598.32 171.781 1598.33 173.386C1598.33 175.273 1599.79 175.093 1601.14 174.928C1601.59 174.872 1602.03 174.819 1602.4 174.844C1605.21 175.039 1608.05 175.031 1610.87 174.878C1613.31 174.742 1614.22 175.743 1614 178.082C1613.91 178.922 1613.9 179.786 1614.01 180.617C1614.59 184.78 1613.71 187.552 1608.61 186.687C1607.53 186.509 1605.96 186.56 1605.95 188.027C1605.95 189.439 1606.94 189.435 1607.92 189.431C1608.26 189.43 1608.59 189.428 1608.89 189.485C1609.41 189.585 1610.02 189.527 1610.63 189.47C1612 189.342 1613.36 189.214 1613.69 190.816C1614.34 193.91 1614.59 197.276 1613.4 200.379C1613.1 201.149 1612.12 201.105 1611.25 201.065C1611.05 201.056 1610.86 201.047 1610.67 201.048C1609.05 201.07 1607.43 201.07 1605.8 201.07C1604.18 201.07 1602.55 201.07 1600.93 201.091C1600.84 201.092 1600.75 201.093 1600.66 201.093H1600.66C1599.6 201.099 1598.32 201.106 1598.25 202.473C1598.18 203.913 1599.32 203.877 1600.3 203.846L1600.34 203.844C1600.49 203.84 1600.64 203.835 1600.78 203.838L1601.2 203.846L1601.2 203.846C1604.31 203.912 1607.42 203.977 1610.52 203.872C1612.96 203.787 1614.32 204.482 1614 207.203C1613.86 208.314 1613.85 209.484 1614.01 210.586C1614.56 214.367 1613.21 216.122 1609.2 215.63C1609.15 215.623 1609.09 215.617 1609.03 215.609C1607.78 215.451 1605.87 215.211 1605.94 217.198C1606.01 219.044 1607.77 218.815 1609.01 218.654C1609.12 218.64 1609.23 218.626 1609.33 218.614C1613.06 218.173 1614.56 219.564 1613.99 223.328C1613.78 224.71 1613.86 226.151 1613.96 227.558C1614.13 229.839 1613.02 230.483 1610.92 230.424C1608.07 230.335 1605.22 230.362 1602.37 230.389H1602.36H1602.36H1602.36C1602.03 230.392 1601.7 230.395 1601.37 230.398C1601.02 230.401 1600.68 230.404 1600.33 230.407C1599.34 230.415 1598.18 230.466 1598.16 231.822C1598.14 233.145 1599.26 233.306 1600.29 233.315C1601.1 233.322 1601.91 233.334 1602.73 233.346L1602.73 233.346H1602.73C1605.45 233.386 1608.17 233.425 1610.88 233.315C1613.31 233.213 1614.23 234.145 1613.99 236.511C1613.88 237.63 1613.82 238.791 1613.99 239.893C1614.54 243.683 1613.23 245.421 1609.19 244.861C1609.09 244.847 1608.98 244.83 1608.86 244.812C1607.65 244.627 1605.87 244.354 1605.94 246.294C1606 248.174 1607.86 247.91 1609.12 247.732C1609.19 247.721 1609.26 247.711 1609.34 247.701C1613.17 247.176 1614.09 248.769 1614.01 252.44C1613.78 263.597 1613.85 274.753 1613.98 285.919C1614.01 288.869 1613.07 289.827 1610.09 289.793C1596.39 289.649 1582.68 289.589 1568.99 289.767C1565.48 289.81 1564.42 288.835 1564.45 285.283C1564.56 268.867 1564.55 252.446 1564.53 236.024V236.024V236.023V236.023V236.023V236.022V236.022V236.021C1564.53 230.547 1564.52 225.072 1564.52 219.598C1564.52 219.608 1564.52 219.615 1564.52 219.62C1564.53 219.632 1564.55 219.632 1564.56 219.632ZM1596.56 292.379L1596.2 292.379C1594.03 292.379 1591.86 292.378 1589.69 292.378C1589.69 292.336 1589.69 292.302 1589.68 292.268C1587.08 292.268 1584.47 292.273 1581.87 292.278H1581.87H1581.87H1581.87H1581.87H1581.86H1581.86C1575.02 292.292 1568.18 292.305 1561.34 292.226C1559.07 292.192 1558.41 292.989 1558.47 295.159C1558.53 296.999 1558.84 298.05 1561.02 298.041C1574.4 297.999 1587.78 298 1601.17 298.001H1601.2C1606.56 298.001 1611.92 298.001 1617.27 297.999H1617.32C1619.19 297.999 1620.86 297.999 1620.79 295.176C1620.72 292.412 1619.14 292.37 1617.18 292.37C1610.31 292.382 1603.43 292.381 1596.56 292.379ZM1590.96 338.759C1590.96 341.333 1590.96 343.907 1590.96 346.481C1590.97 355.487 1590.98 364.494 1590.91 373.501C1590.91 373.767 1590.95 374.076 1590.99 374.399L1590.99 374.4C1591.14 375.655 1591.32 377.122 1589.3 377.062C1587.38 377.001 1587.56 375.567 1587.72 374.317C1587.76 373.989 1587.8 373.674 1587.8 373.399C1587.73 350.382 1587.72 327.365 1587.77 304.349C1587.77 304.092 1587.74 303.799 1587.71 303.495C1587.58 302.212 1587.43 300.716 1589.4 300.771C1591.29 300.819 1591.14 302.274 1591.01 303.557C1590.98 303.877 1590.95 304.185 1590.95 304.459C1591 313.255 1590.99 322.051 1590.99 330.851V330.852V330.853V330.854V330.855V330.856L1590.99 334.44C1590.99 335.885 1590.99 337.331 1590.99 338.776C1590.98 338.759 1590.97 338.759 1590.96 338.759ZM1585.03 385.529C1586.57 385.536 1588.12 385.542 1589.67 385.539C1591.16 385.539 1592.65 385.532 1594.14 385.524C1597.57 385.506 1601 385.488 1604.42 385.565C1606.6 385.624 1607.38 384.87 1607.41 382.674C1607.44 380.394 1606.49 379.8 1604.4 379.817C1594.56 379.876 1584.72 379.876 1574.88 379.8C1572.74 379.783 1571.9 380.453 1571.93 382.699C1571.96 384.912 1572.74 385.633 1574.91 385.582C1578.28 385.5 1581.65 385.515 1585.03 385.529ZM1589.63 142.188C1588.64 142.191 1587.65 142.187 1586.66 142.184C1584.85 142.178 1583.03 142.172 1581.21 142.205C1579.29 142.238 1578 141.891 1577.99 139.483C1577.98 137.22 1578.94 136.567 1581.03 136.592C1586.64 136.669 1592.26 136.669 1597.87 136.609C1599.81 136.592 1600.58 137.27 1600.6 139.297C1600.63 141.518 1599.8 142.298 1597.64 142.205C1595.72 142.125 1593.8 142.147 1591.89 142.168C1591.13 142.177 1590.38 142.185 1589.63 142.188ZM1701.52 359.653C1701.53 356.97 1701.55 354.286 1701.55 351.603C1701.55 351.603 1701.55 351.603 1701.55 351.604C1701.55 351.604 1701.55 351.604 1701.56 351.606C1701.56 351.607 1701.57 351.609 1701.57 351.612C1701.57 349.027 1701.57 346.442 1701.57 343.859V343.803V343.801C1701.58 337.363 1701.58 330.927 1701.56 324.491C1701.56 324.264 1701.56 324.035 1701.57 323.805V323.804C1701.58 322.471 1701.59 321.119 1701.27 319.854C1699.41 312.273 1697.5 304.705 1695.59 297.136C1694.39 292.407 1693.2 287.676 1692.02 282.942C1691.56 281.103 1690.8 280.068 1688.59 280.102C1680.83 280.23 1673.05 280.187 1665.29 280.128C1663.49 280.111 1662.4 280.586 1661.94 282.502C1660.86 286.92 1659.74 291.33 1658.63 295.74C1656.53 304.04 1654.44 312.339 1652.57 320.693C1651.06 327.442 1651.81 327.933 1658.51 327.942H1661.9C1667.86 327.959 1668.56 328.612 1668.57 334.419C1668.58 339.36 1668.57 344.3 1668.57 349.241V349.283C1668.57 354.214 1668.57 359.144 1668.58 364.074C1668.58 365.039 1668.58 365.93 1668.59 366.754C1668.62 371.755 1668.64 374.254 1667.4 375.479C1666.16 376.702 1663.67 376.655 1658.69 376.559C1657.98 376.545 1657.22 376.531 1656.41 376.519C1653.39 376.477 1652.15 377.121 1652.21 380.453C1652.27 383.564 1653.39 384.174 1656.21 384.149C1669.91 384.022 1683.61 383.996 1697.31 384.149C1700.5 384.183 1701.72 383.462 1701.63 379.986C1701.45 373.216 1701.49 366.437 1701.52 359.659V359.653ZM1669.72 277.769H1669.72C1664.64 277.753 1659.55 277.737 1654.47 277.831C1651.68 277.882 1650.69 276.907 1650.85 274.143C1651.04 270.76 1650.99 267.361 1650.86 263.978C1650.77 261.732 1651.76 261.003 1653.86 261.011C1668.97 261.045 1684.09 261.062 1699.21 260.994C1701.62 260.986 1702.44 261.927 1702.34 264.258C1702.21 267.641 1702.18 271.049 1702.37 274.423C1702.51 277.042 1701.51 277.856 1698.96 277.822C1693.62 277.732 1688.27 277.749 1682.92 277.766C1680.78 277.773 1678.64 277.78 1676.5 277.78C1674.24 277.783 1671.98 277.776 1669.72 277.769Z" fill="white"/>
<line x1="1809" y1="345.75" x2="1923" y2="345.75" stroke="white" stroke-width="2.5"/>
<line x1="1.09278e-07" y1="345.75" x2="1164" y2="345.75" stroke="white" stroke-width="2.5"/>
</svg>
